<svg width="261" height="32" viewBox="0 0 261 32" fill="none" xmlns="http://www.w3.org/2000/svg">
<g clip-path="url(#clip0_86_739)">
<path d="M261 0.701904H0V31.9665H261V0.701904Z" fill="white"/>
<path d="M259.632 1.67503L96.019 1.90771L96.059 31.0267L259.672 30.794L259.632 1.67503Z" fill="#042B60"/>
<path d="M112.766 22.6865L114.104 19.1774L113.596 18.8921L110.67 21.619H108.169L108.148 10.0348L109.653 9.64373V8.88273H104.246V9.6543L105.761 10.0454L105.782 21.5344L104.267 21.9255V22.6971H112.755L112.766 22.6865ZM121.69 16.1968H118.089L119.915 11.2926L121.69 16.1968ZM121.97 22.6654H127.543V21.8832L126.059 21.5133L121.026 7.65666C120.403 8.39653 119.76 8.96728 119.179 9.26323L119.365 9.84455L114.706 21.5239L113.71 21.9149L113.409 22.6865H117.55V21.9149L116.149 21.545L117.726 17.2961H122.063L123.589 21.5027L121.949 21.9044V22.676L121.97 22.6654ZM140.783 9.99253L142.444 9.58031V8.81931H137.65V9.59088L139.279 9.98196L135.751 19.2303L132.015 9.97139L133.779 9.59088V8.82988H127.75V9.60145L129.473 9.98196L134.848 23.1199H135.419L140.742 9.98196H140.783V9.99253ZM147.144 16.1546H143.544L145.37 11.2503L147.144 16.1546ZM164.972 9.93968L166.612 9.54861V8.7876H162.004V9.55918L163.665 9.95025L163.779 18.9872L155.259 8.79817H151.627V9.56974L153.267 9.93968L153.412 10.0137L153.308 21.4393L151.638 21.841L146.491 7.60381C145.878 8.34368 145.225 8.90386 144.644 9.21038L144.841 9.7917L140.182 21.471L138.76 21.8621V22.6337H143.025V21.8621L141.634 21.4922L143.201 17.2432H147.549L149.075 21.4605L147.445 21.8621V22.6337H156.37V21.8515L154.616 21.4605L154.491 11.4617L164.225 23.0882H164.868L164.982 9.93968H164.972ZM180.185 16.6408L181.461 16.144V15.5098H176.283V16.292L177.819 16.683V21.1328C177.092 21.7458 175.899 22.1686 174.757 22.1792C171.675 22.1792 169.704 19.5474 169.694 15.8797C169.694 12.3178 171.624 9.29494 174.778 9.28437C176.833 9.28437 178.659 10.743 179.323 13.0365L179.759 12.7723V8.4071L179.365 8.18514L178.545 9.24209C177.673 8.76646 176.189 8.26969 174.789 8.26969C170.596 8.26969 167.182 11.7471 167.182 15.8903C167.182 20.1921 170.181 23.2573 174.228 23.2467C175.878 23.2467 177.404 22.7182 178.597 21.7564L179.79 22.5703H180.185V16.6408ZM194.069 9.8974L195.657 9.50633V8.74532H191.122V9.5169L192.751 9.90797C192.751 9.90797 192.886 16.757 192.824 18.4904C192.751 20.5198 191.215 21.8727 189.171 21.8727C187.075 21.8727 185.581 20.6149 185.518 18.3319V9.8974L187.085 9.52747V8.76646H181.627V9.53804L183.173 9.90797V18.4059C183.287 21.3231 185.601 23.2361 188.579 23.2361C191.558 23.2361 193.872 21.4499 193.965 18.3953L194.069 9.91854V9.8974ZM229.921 15.6049C229.921 19.1457 227.96 21.3653 224.909 21.3653H222.969L222.948 9.85512H224.93C228.012 9.85512 229.9 12.0113 229.911 15.6049M212.125 15.0236C211.917 15.0236 211.471 15.0236 211.201 15.0236V9.87626H212.353C213.806 9.87626 214.771 10.9755 214.729 12.339C214.677 13.7024 213.723 15.0342 212.125 15.0342M202.287 16.0806H198.687L200.513 11.1763L202.287 16.0806ZM232.308 15.5944C232.308 11.5674 229.236 8.69247 225.013 8.70304H218.973V9.47462L220.561 9.85512L220.582 21.1962C220.374 21.471 220.042 21.767 219.472 21.767C218.413 21.767 217.811 20.858 217.51 20.3084L215.995 17.5603C215.383 16.3871 214.677 15.848 213.245 15.6789V15.4887C215.259 15.4358 217.054 13.9667 217.054 11.9902C217.054 9.63316 214.947 8.71361 212.509 8.72418H207.019V9.49576L208.804 9.87626L208.825 21.3653L206.77 21.7775L201.623 7.5404C201.011 8.28026 200.357 8.85102 199.776 9.14696L199.973 9.72829L195.314 21.4076L193.903 21.7987V22.5703H198.157V21.7987L196.756 21.4287L198.334 17.1798H202.671L204.207 21.397L202.568 21.7987V22.5703L212.944 22.5491V21.7775L211.201 21.4076V16.0594C212.374 16.1334 212.934 16.683 213.505 17.7823L215.57 21.5239C216.255 22.7394 217.292 23.363 218.548 23.363C219.513 23.363 220.291 22.7711 220.499 22.5385H225.148C229.101 22.528 232.297 19.4205 232.297 15.6155M245.704 16.0383H242.104L243.94 11.134L245.715 16.0383H245.704ZM251.567 22.4963V21.7247L250.052 21.3231L245.04 7.48755C244.418 8.22742 243.764 8.79817 243.193 9.09412L243.39 9.67544L238.721 21.4076L237.922 21.7353L236.842 21.3865L236.822 9.84455L238.482 9.45348V8.69247H232.806V9.46405L234.445 9.85512V21.3653L232.889 21.7458V22.5174H241.564V21.7353L240.173 21.3653L241.751 17.1164H246.099L247.624 21.3231L245.995 21.7247V22.4963H251.567Z" fill="white"/>
<path d="M96.2377 2.29837L1.33057 2.43335L1.3694 30.7596L96.2765 30.6247L96.2377 2.29837Z" fill="white"/>
<path d="M96.2377 2.29837L1.33057 2.43335L1.3694 30.7596L96.2765 30.6247L96.2377 2.29837Z" stroke="#042B60" stroke-width="0.75"/>
<path d="M7.92798 16.5985C7.92798 12.8041 10.7505 10.1617 14.2371 10.1511C16.3229 10.1511 18.2115 10.9544 19.2492 12.6455L18.6888 13.0683C17.7445 11.5674 16.1776 10.8381 14.2371 10.8381C11.0618 10.8381 8.68549 13.3114 8.68549 16.5985C8.68549 19.8857 11.0929 22.3484 14.2683 22.3378C17.5059 22.3378 19.2077 20.2979 19.4982 18.0254H14.4862V17.349H20.318C20.1624 20.7418 17.8172 23.0248 14.2786 23.0248C10.792 23.0248 7.94873 20.393 7.93836 16.5985" fill="#042B60"/>
<path d="M21.5632 16.5773C21.5632 12.7511 24.3858 10.1405 27.8724 10.1299C31.359 10.1299 34.2023 12.73 34.2023 16.5562C34.2023 20.3823 31.3798 22.993 27.8931 23.0036C24.4065 23.0036 21.5736 20.4035 21.5632 16.5773ZM33.4448 16.5562C33.4448 13.269 31.0581 10.8063 27.8828 10.8169C24.7074 10.8169 22.3311 13.2902 22.3311 16.5773C22.3311 19.8644 24.7178 22.3271 27.8931 22.3165C31.0789 22.3165 33.4448 19.8433 33.4448 16.5562Z" fill="#042B60"/>
<path d="M36.3398 18.6596V10.2674H37.0766V18.6068C37.0974 21.0272 38.4775 22.3272 40.5114 22.3167C42.5245 22.3167 43.9357 21.0166 43.9357 18.5962V10.2568H44.6621V18.649C44.6829 21.4817 42.8669 22.9825 40.5114 22.9825C38.135 22.9825 36.3502 21.4922 36.3502 18.6596" fill="#042B60"/>
<path d="M55.1325 22.8132H54.2401L51.6562 19.2302C51.1997 19.3464 50.6808 19.3993 50.1205 19.3993H48.3771V22.8238H47.6404L47.6196 10.2566H50.1101C53.4515 10.2461 55.0287 12.2754 55.0391 14.8332C55.0391 16.6829 54.1882 18.2789 52.393 18.9976L55.1325 22.8238V22.8132ZM50.0478 18.7334C53.1713 18.7334 54.2712 16.8943 54.2712 14.8227C54.2712 12.751 53.1505 10.9014 50.0375 10.9119H48.3668V18.7334H50.0478Z" fill="#042B60"/>
<path d="M58.3079 10.0665H58.4532L62.6558 18.2156C62.9256 18.7123 63.1435 19.3359 63.1435 19.3359C63.1435 19.3359 63.3718 18.7123 63.6312 18.2156L67.8339 10.0559H67.9584L69.4942 22.7922H68.747L67.6056 13.3853C67.533 12.7406 67.5122 11.7365 67.5122 11.7365C67.5122 11.7365 67.2424 12.5503 66.9103 13.2162L63.1643 20.5092H63.0397L59.3041 13.2056C58.9928 12.5926 58.7022 11.7259 58.7022 11.7259C58.7022 11.7259 58.6814 12.7194 58.6088 13.3747L57.4881 22.8133H56.7617L58.2664 10.0665H58.3079Z" fill="#042B60"/>
<path d="M71.9016 10.2144L79.1136 10.2039V10.8697L72.6488 10.8803L72.6591 17.6131L78.4494 17.6025V18.2684L72.6591 18.279V22.1263L79.3834 22.1157V22.7816L71.9224 22.7922L71.9016 10.2144Z" fill="#042B60"/>
<path d="M84.4681 10.8592L80.5457 10.8698V10.2039L89.1274 10.1934L89.1377 10.8592H85.2049L85.2256 22.7711H84.4785L84.4681 10.8592Z" fill="#042B60"/>
</g>
<defs>
<clipPath id="clip0_86_739">
<rect width="261" height="31.2646" fill="white" transform="translate(0 0.701904)"/>
</clipPath>
</defs>
</svg>
