<svg width="203" height="41" viewBox="0 0 203 41" fill="none" xmlns="http://www.w3.org/2000/svg">
<path d="M20.581 40.3278H20.1363C20.116 40.3278 20.116 40.3278 20.0958 40.3278C14.8394 40.226 10.2703 38.2707 6.53014 34.5027C2.68889 30.6736 0.748047 25.9687 0.748047 20.5101C0.748047 15.072 2.68889 10.3671 6.53014 6.51759C10.2905 2.81069 14.8394 0.875764 20.0958 0.773926C20.116 0.773926 20.116 0.773926 20.1363 0.773926C21.0056 0.773926 21.7334 1.48679 21.7536 2.3626C21.7738 3.25877 21.0662 4.01238 20.1767 4.01238C15.7087 4.11421 11.9888 5.68252 8.81467 8.85987C5.55972 12.1187 3.98278 15.9274 3.98278 20.5305C3.98278 25.1336 5.55972 28.9627 8.81467 32.2011C11.9888 35.3785 15.6885 36.9672 20.1565 37.069H20.581C25.1905 37.069 29.0116 35.4803 32.2665 32.2011C35.5417 28.9423 37.1388 25.1336 37.1388 20.5305V20.3268C37.1388 19.4307 37.8667 18.6974 38.7562 18.6974C39.6458 18.6974 40.3736 19.4307 40.3736 20.3268V20.5305C40.3736 25.989 38.4125 30.6939 34.5511 34.5231C30.7098 38.3725 25.9992 40.3278 20.581 40.3278Z" fill="white"/>
<path d="M19.9138 34.7881C19.8936 34.7881 19.8532 34.7881 19.833 34.7881C16.2545 34.6252 13.1209 33.2198 10.5533 30.6127C7.80379 27.8427 6.40881 24.4617 6.40881 20.5308C6.40881 16.6202 7.80379 13.2188 10.5533 10.4488C13.1209 7.86211 16.2343 6.45675 19.8128 6.29381C20.0554 6.27344 20.3182 6.27344 20.5608 6.27344C24.4425 6.27344 27.7985 7.6788 30.548 10.4488C33.2369 13.1577 34.6521 16.4776 34.6926 20.3067C34.7128 21.2029 33.985 21.9361 33.0954 21.9565H33.0752C32.1856 21.9565 31.478 21.2436 31.4578 20.3475C31.4174 17.3534 30.3661 14.8686 28.2433 12.73C26.1003 10.571 23.5731 9.51189 20.5406 9.51189C20.3586 9.51189 20.1564 9.51189 19.9745 9.53226C19.9543 9.53226 19.9543 9.53226 19.9341 9.53226C17.1845 9.67483 14.8393 10.7136 12.8176 12.7503C10.6746 14.9297 9.62333 17.4756 9.62333 20.5308C9.62333 23.6063 10.6746 26.1522 12.8176 28.3112C14.8393 30.348 17.1845 31.4071 19.9745 31.5496C20.864 31.5904 21.5514 32.344 21.511 33.2402C21.4706 34.116 20.763 34.7881 19.9138 34.7881Z" fill="white"/>
<path d="M20.5406 29.1054C18.2157 29.1054 16.1737 28.2499 14.5361 26.6002C12.8783 24.93 12.0494 22.9136 12.0494 20.551C12.0494 18.2087 12.8783 16.1719 14.5361 14.5018C16.1939 12.8317 18.2157 11.9966 20.5608 11.9966C22.8858 11.9966 24.9075 12.8317 26.5653 14.5018C28.2231 16.1719 29.052 18.2087 29.052 20.551C29.052 22.9136 28.2029 24.9504 26.5451 26.6002C24.9075 28.2499 22.8858 29.1054 20.5406 29.1054ZM20.5406 15.235C19.0648 15.235 17.8517 15.7442 16.8005 16.783C15.7694 17.8217 15.264 19.0641 15.264 20.5306C15.264 22.0174 15.7694 23.2395 16.8005 24.2782C17.8517 25.3374 19.0648 25.8466 20.5406 25.8466C22.0165 25.8466 23.2295 25.3374 24.2606 24.2782C25.3119 23.2191 25.8173 21.9971 25.8173 20.5306C25.8173 19.0438 25.3119 17.8217 24.2606 16.7626C23.2295 15.7442 22.0165 15.235 20.5406 15.235Z" fill="white"/>
<path d="M54.6873 25.2557C51.594 25.2557 49.4915 23.1579 49.4915 20.3268C49.4915 17.4753 51.594 15.3774 54.6873 15.3774C55.779 15.3774 56.7898 15.7033 57.6592 16.2125L56.992 18.0863C56.2844 17.6993 55.4959 17.4549 54.7277 17.4549C52.9486 17.4549 51.8569 18.5548 51.8569 20.3268C51.8569 22.0988 52.9486 23.1986 54.7277 23.1986C55.4959 23.1986 56.3855 22.9338 57.0931 22.4857L57.7603 24.3596C56.9111 24.9095 55.779 25.2557 54.6873 25.2557Z" fill="white"/>
<path d="M64.4522 25.2557C61.5207 25.2557 59.6405 23.1375 59.6405 20.3268C59.6405 17.516 61.6016 15.3774 64.5533 15.3774C67.4847 15.3774 69.3649 17.4957 69.3649 20.3268C69.3649 23.1171 67.3837 25.2557 64.4522 25.2557ZM64.4926 17.3531C62.9965 17.3531 61.9857 18.5955 61.9857 20.3064C61.9857 22.0173 62.9965 23.2597 64.4926 23.2597C65.9887 23.2597 66.9995 22.0173 66.9995 20.3064C66.9995 18.5955 65.9887 17.3531 64.4926 17.3531Z" fill="white"/>
<path d="M80.1811 25.2763L74.4596 20.1029V25.093H72.256V15.398L72.5592 15.3369L78.1998 20.4696V15.5406H80.4035V25.2356L80.1811 25.2763Z" fill="white"/>
<path d="M85.8418 17.5773V19.6955H89.0968V21.6304H85.8418V25.0929H83.6382V15.5405H89.6427V17.5773H85.8418Z" fill="white"/>
<path d="M92.2709 25.0929V15.5405H94.4745V25.0929H92.2709Z" fill="white"/>
<path d="M103.552 25.0929L102.844 23.3616H99.5693L98.8617 25.0929H96.6176L101.086 15.459H101.389L105.857 25.0929H103.552ZM101.207 19.3696L100.257 21.6711H102.137L101.207 19.3696Z" fill="white"/>
<path d="M115.824 25.2763L110.102 20.1029V25.093H107.899V15.398L108.202 15.3369L113.843 20.4696V15.5406H116.046V25.2356L115.824 25.2763Z" fill="white"/>
<path d="M122.091 23.0764H126.64V25.0928H118.594L118.533 24.8484L123.223 17.5568H118.856V15.52H126.721L126.782 15.7644L122.091 23.0764Z" fill="white"/>
<path d="M135.01 25.0929L134.302 23.3616H131.027L130.32 25.0929H128.075L132.543 15.459H132.847L137.315 25.0929H135.01ZM132.665 19.3696L131.715 21.6711H133.595L132.665 19.3696Z" fill="white"/>
<path d="M150.415 20.1638C150.415 20.8767 150.294 21.5488 150.031 22.1802C149.768 22.8116 149.425 23.3412 149 23.7893C148.555 24.2373 148.05 24.5836 147.443 24.828C146.837 25.0724 146.21 25.215 145.543 25.215C144.876 25.215 144.249 25.0928 143.663 24.828C143.076 24.5632 142.571 24.217 142.126 23.7893C141.702 23.3412 141.358 22.8116 141.095 22.1802C140.832 21.5488 140.711 20.8767 140.711 20.1638C140.711 19.451 140.832 18.7788 141.095 18.1474C141.358 17.516 141.702 16.9661 142.126 16.5384C142.551 16.1107 143.076 15.744 143.683 15.4793C144.289 15.2145 144.916 15.0923 145.583 15.0923C146.251 15.0923 146.877 15.2145 147.464 15.4793C148.05 15.744 148.576 16.0903 149 16.5384C149.425 16.9865 149.768 17.516 150.031 18.1474C150.294 18.7788 150.415 19.451 150.415 20.1638ZM149.303 21.8951C149.506 21.3451 149.607 20.7748 149.607 20.1638C149.607 19.5528 149.506 18.9825 149.303 18.4326C149.101 17.8826 148.818 17.4346 148.474 17.0272C148.131 16.6402 147.686 16.3347 147.201 16.1107C146.695 15.8866 146.149 15.7644 145.583 15.7644C145.017 15.7644 144.471 15.8866 143.966 16.1107C143.461 16.3347 143.036 16.6402 142.692 17.0272C142.349 17.4142 142.066 17.8826 141.863 18.4326C141.661 18.9825 141.56 19.5528 141.56 20.1638C141.56 20.7748 141.661 21.3451 141.863 21.8951C142.066 22.445 142.349 22.8931 142.692 23.2801C143.036 23.667 143.461 23.9726 143.966 24.1966C144.471 24.4207 144.997 24.5429 145.583 24.5429C146.17 24.5429 146.695 24.4207 147.201 24.1966C147.706 23.9726 148.131 23.667 148.474 23.2801C148.818 22.8931 149.101 22.445 149.303 21.8951Z" fill="white"/>
<path d="M162.667 25.215L162.525 25.2557L156.015 16.8846V25.0928H155.288V15.133L155.47 15.0923L161.919 23.3615V15.2349H162.667V25.215Z" fill="white"/>
<path d="M173.443 25.0928H167.923V15.2349H168.671V24.4003H173.443V25.0928Z" fill="white"/>
<path d="M178.497 25.0928H177.749V15.2349H178.497V25.0928Z" fill="white"/>
<path d="M191.173 25.215L191.031 25.2557L184.522 16.8846V25.0928H183.794V15.133L183.976 15.0923L190.425 23.3615V15.2349H191.173V25.215Z" fill="white"/>
<path d="M201.949 25.0928H196.429V15.2349H201.949V15.907H197.177V19.7565H201.484V20.4286H197.177V24.4207H201.949V25.0928Z" fill="white"/>
</svg>
