<svg width="49" height="54" viewBox="0 0 49 54" fill="none" xmlns="http://www.w3.org/2000/svg">
<path d="M24.5001 0H42.0529C42.2259 0 42.3747 0.102307 42.4446 0.24994C47.3431 9.16879 49.248 18.0889 48.9746 27.0117C48.7025 35.9266 46.2545 44.8325 42.451 53.7332C42.3785 53.9016 42.2157 54.0026 42.0466 54H6.9472C6.75645 54 6.59367 53.8744 6.53645 53.7008C2.73924 44.8118 0.297632 35.9175 0.0254946 27.0129C-0.247915 18.0837 1.66086 9.15454 6.56824 0.227925C6.64708 0.0828817 6.7946 0 6.9472 0H24.5001ZM41.7973 0.884503H7.20153C2.4671 9.58708 0.624451 18.2884 0.89023 26.987C1.15601 35.6883 3.53149 44.3974 7.22951 53.1129H41.7681C45.4674 44.3974 47.8416 35.687 48.1073 26.987C48.3731 18.2884 46.5305 9.58708 41.7961 0.885798L41.7973 0.884503Z" fill="#042B60"/>
<path d="M46.9806 11.1062C46.7377 10.2735 46.4732 9.44464 46.1858 8.6197C46.14 8.45524 46.0027 8.32703 45.8259 8.30242L45.7687 8.74144L45.8246 8.30372C38.421 7.29489 31.1648 6.79631 24.0562 6.80019C16.9526 6.80408 9.99912 7.30784 3.19569 8.30113C3.03037 8.31537 2.87904 8.42545 2.82054 8.5951C2.5306 9.4291 2.26228 10.2657 2.01685 11.1075C1.77904 11.9207 1.56159 12.7444 1.36321 13.5784C1.34032 13.6444 1.33396 13.7169 1.3454 13.7907C1.38228 14.0316 1.6061 14.1961 1.84263 14.1559C9.11022 12.9723 16.5215 12.3856 24.0727 12.3882C31.615 12.3908 39.3035 12.9826 47.1383 14.1546C47.198 14.1663 47.2616 14.1663 47.3252 14.1508C47.5579 14.0938 47.7016 13.8542 47.6456 13.6172H47.6431C47.4422 12.7703 47.2222 11.9324 46.9806 11.1062Z" fill="#042B60"/>
<path d="M46.1885 42.8342C46.4746 42.0106 46.7404 41.1805 46.9833 40.3478L46.9807 40.3504C47.2224 39.5229 47.4424 38.6863 47.6433 37.8393H47.6458C47.7018 37.6023 47.5594 37.3628 47.3254 37.3058C47.2542 37.2889 47.1829 37.2902 47.1168 37.3071C39.1396 38.865 31.3837 39.6407 23.8478 39.6407C16.3068 39.6394 8.98069 38.8598 1.8657 37.3032C1.63044 37.2514 1.39899 37.4042 1.3494 37.6425C1.33287 37.7241 1.33795 37.8044 1.36339 37.8782C1.56177 38.7122 1.77922 39.5358 2.01702 40.3504C2.26246 41.1921 2.52951 42.03 2.82072 42.8627C2.87922 43.0272 3.02292 43.136 3.18442 43.1541C10.2829 44.2458 17.389 44.7807 24.5002 44.7755C31.6164 44.7703 38.7276 44.2225 45.8324 43.1515L45.7701 42.7138L45.8337 43.1515C46.0079 43.1243 46.1427 42.9961 46.1885 42.8342Z" fill="#042B60"/>
<path d="M24.4998 0H36.1127C36.3085 0 36.4751 0.132093 36.5285 0.314691C39.7624 9.21152 41.0188 18.1096 40.8382 27.0078C40.6589 35.9007 39.0414 44.7898 36.5285 53.6775L36.1127 53.5571L36.5311 53.6801C36.4751 53.877 36.2984 54.0039 36.1063 54H12.8869C12.6733 54 12.4965 53.8433 12.4596 53.6374C9.95317 44.7639 8.34069 35.8891 8.16139 27.0104C7.98081 18.1032 9.23976 9.19728 12.48 0.292676L12.8869 0.445489L12.48 0.291381C12.5461 0.111372 12.7152 0 12.8945 0.00259005H24.4998V0ZM35.81 0.884503H13.1896C10.0664 9.58708 8.85063 18.2884 9.02613 26.9896C9.20289 35.6935 10.7696 44.4026 13.2112 53.1129H35.7872C38.2288 44.4026 39.7967 35.6948 39.9722 26.9896C40.149 18.2884 38.9333 9.58708 35.8088 0.884503H35.81Z" fill="#042B60"/>
<path d="M24.4992 0H28.9805C29.2094 0 29.3964 0.180009 29.4142 0.406638C30.6566 9.2685 31.1398 18.1342 31.0699 27.0026C30.9999 35.8787 30.3781 44.7444 29.4116 53.6037L28.9805 53.5545L29.4129 53.6037C29.3875 53.8304 29.1993 53.9974 28.9805 53.9974H20.0178C19.7851 53.9974 19.5956 53.8109 19.5842 53.5765C18.619 44.725 17.9984 35.867 17.9284 27.0013C17.8585 18.1239 18.343 9.25037 19.588 0.379443L20.0178 0.441604L19.588 0.379443C19.6185 0.159288 19.8054 0 20.0178 0H24.4992ZM28.6041 0.884503H20.3955C19.195 9.59096 18.727 18.2948 18.7957 26.9948C18.8644 35.6922 19.4672 44.4 20.4082 53.1129H28.5939C29.535 44.4 30.1377 35.6935 30.2064 26.9948C30.2751 18.2948 29.8071 9.59096 28.6067 0.884503H28.6041Z" fill="#042B60"/>
</svg>
