<svg width="47" height="55" viewBox="0 0 47 55" fill="none" xmlns="http://www.w3.org/2000/svg">
<path d="M23.5594 0.920434L23.4988 0.874316L23.4383 0.920437L10.3642 10.8749H1H0.9V10.9749V42.2244V42.2855L0.954292 42.3134L23.2936 53.7935L23.2941 53.7937L23.4537 53.877L23.4997 53.901L23.5457 53.8773L45.8668 42.406L45.8669 42.4059L46.0455 42.3146L46.1 42.2867V42.2255V10.9737V10.8737H46H36.6332L23.5594 0.920434ZM1.77559 41.7745V11.7257H45.2209V41.775L23.4988 52.9382L1.77559 41.7745ZM11.7844 10.8749L23.4988 1.9559L35.2133 10.8749H11.7844Z" fill="#042B60" stroke="#042B60" stroke-width="0.2"/>
<path d="M23.5884 17.5275L23.4995 17.3545L23.4105 17.5275L19.3262 25.4726L10.1932 26.747L9.98578 26.7759L10.1387 26.919L16.7447 33.1013L15.1848 41.8314L15.1496 42.0285L15.3283 41.9383L23.4995 37.8122L31.6706 41.9383L31.8494 42.0285L31.8141 41.8314L30.2543 33.1013L36.8603 26.919L37.0132 26.7759L36.8057 26.747L27.6729 25.4728L23.5884 17.5275Z" fill="#042B60" stroke="#042B60" stroke-width="0.2"/>
</svg>
