<svg width="18" height="61" viewBox="0 0 18 61" fill="none" xmlns="http://www.w3.org/2000/svg">
<path d="M10.8012 18.7316V0.713562H6.34845V18.7316C2.84831 20.2496 0.599609 23.675 0.599609 27.525V60.1765H16.5477V27.5236C16.5477 23.675 14.299 20.2483 10.8 18.7303L10.8012 18.7316Z" fill="white"/>
<path d="M17.1526 60.8887H0V27.5236C0 23.5407 2.24298 19.9444 5.74884 18.2419V0H11.4049V18.2419C14.9108 19.9444 17.1538 23.5407 17.1538 27.5236V60.8887H17.1526ZM1.20335 59.4615H15.9481V27.5236C15.9481 23.9992 13.8471 20.8113 10.5954 19.4004L10.2004 19.2295V1.42712H6.95219V19.2295L6.55718 19.4004C3.3055 20.8099 1.2045 23.9992 1.2045 27.5236V59.4615H1.20335Z" fill="black"/>
<path d="M10.1935 1.26837H6.95898V8.99002H10.1935V1.26837Z" fill="#042B60"/>
<path d="M13.7337 29.237H3.41538C2.51935 29.237 1.79297 30.0976 1.79297 31.1593V49.9615C1.79297 51.0231 2.51935 51.8837 3.41538 51.8837H13.7337C14.6298 51.8837 15.3561 51.0231 15.3561 49.9615V31.1593C15.3561 30.0976 14.6298 29.237 13.7337 29.237Z" fill="#042B60"/>
</svg>
