<svg width="55" height="52" viewBox="0 0 55 52" fill="none" xmlns="http://www.w3.org/2000/svg">
<path d="M16.2486 6.20727H1H0.95V6.25727V16.2999V16.3499H1H3.4697V51.7884V51.8384H3.5197H51.4803H51.5303V51.7884V16.3499H54H54.05V16.2999V6.25727V6.20727H54H38.7533C39.4378 5.3042 39.6887 4.36529 39.436 3.50967C39.2008 2.71372 38.5761 2.07337 37.67 1.63288C36.764 1.19245 35.5736 0.95 34.1979 0.95C33.1453 0.95 32.0584 1.09249 30.965 1.3751L30.965 1.3751C29.697 1.70333 28.5032 2.20868 27.4995 2.84122C26.4946 2.20657 25.303 1.70227 24.0338 1.37509L24.0213 1.42351L24.0338 1.37509C22.9416 1.09357 21.8536 0.95 20.8021 0.95C19.4264 0.95 18.2363 1.19245 17.3306 1.63275C16.4248 2.0731 15.8004 2.71318 15.5652 3.50858L15.5652 3.50861C15.3124 4.36557 15.5625 5.30389 16.2486 6.20727ZM53.2804 15.6222H1.72192V6.935H53.2804V15.6222ZM50.7595 51.1106H4.24162V16.3489H50.7595V51.1106Z" fill="#042B60" stroke="#042B60" stroke-width="0.1"/>
<rect x="51" y="30" width="6" height="47" transform="rotate(90 51 30)" fill="#042B60"/>
<rect x="24" y="7" width="7" height="45" fill="#042B60"/>
</svg>
