<svg width="52" height="53" viewBox="0 0 52 53" fill="none" xmlns="http://www.w3.org/2000/svg">
<path d="M26 0.5C11.9333 0.5 0.5 12.073 0.5 26.2874C0.5 40.5017 11.9333 52.0747 26 52.0747C40.0667 52.0747 51.5 40.5017 51.5 26.2874C51.5 12.073 40.0667 0.5 26 0.5Z" stroke="#042B60"/>
<path d="M22.1598 18.1004C22.1598 13.5364 19.9524 10.702 16.3989 10.702C13.4222 10.702 10.418 13.0911 10.418 18.4311C10.4614 23.9456 13.5693 25.9023 16.2169 25.9023C18.9587 25.9023 22.1598 23.8589 22.1598 18.1004ZM11.036 18.429C11.036 14.1807 13.1915 11.326 16.4 11.326C19.6084 11.326 21.5428 13.8585 21.5428 18.1004C21.5428 22.3422 19.4529 25.2772 16.218 25.2772C12.983 25.2772 11.0698 22.5874 11.037 18.4279L11.036 18.429Z" fill="#042B60" stroke="#042B60" stroke-width="2" stroke-linejoin="round"/>
<path d="M35.8577 26.5291C32.8821 26.5291 29.8789 28.9288 29.8789 34.2945C29.9181 39.4291 32.8175 41.7282 35.6747 41.7282C38.5318 41.7282 41.5816 39.3167 41.5816 33.9285C41.5816 29.3655 39.389 26.5301 35.8567 26.5301L35.8577 26.5291ZM35.6747 41.1031C32.5604 41.1031 30.5276 38.4294 30.4958 34.2913C30.4958 30.0217 32.6503 27.1531 35.8567 27.1531C39.063 27.1531 40.9646 29.6856 40.9646 33.9274C40.9646 38.2859 38.8884 41.1031 35.6747 41.1031Z" fill="#042B60" stroke="#042B60" stroke-width="2" stroke-linejoin="round"/>
<path d="M18.7324 38.4049L32.525 13.8572L33.0615 14.1654L19.2689 38.7132L18.7324 38.4049Z" fill="#042B60" stroke="#042B60" stroke-width="2" stroke-linejoin="round"/>
</svg>
