<svg width="36" height="51" viewBox="0 0 36 51" fill="none" xmlns="http://www.w3.org/2000/svg">
<g clip-path="url(#clip0_883_13442)">
<path d="M1.8418 16.5848H34.1584C32.0553 24.6861 25.6049 30.5956 18.0001 30.5956C10.3953 30.5956 3.94491 24.6851 1.8418 16.5848Z" fill="#042B60"/>
<path d="M33.57 0.344457C35.1502 3.52867 35.9785 7.15923 35.9785 10.8528C35.9785 22.2265 28.2093 31.4988 18.5454 31.8306V44.9372L23.6446 49.6998H25.6273V50.9737H10.3737V49.6998H12.3573L17.4566 44.9361V31.8296C7.79175 31.4998 0.0234375 22.2265 0.0234375 10.8528C0.0234375 7.15923 0.850848 3.52867 2.4311 0.344457C2.52903 0.15332 2.70331 0.0262451 2.89916 0.0262451H33.1019C33.2977 0.0262451 33.4729 0.15332 33.57 0.344457ZM34.4414 15.3099C34.7253 13.8711 34.8888 12.3934 34.8888 10.8528C34.8888 7.50265 34.1584 4.20396 32.7857 1.30014H3.21629C1.84266 4.20396 1.11318 7.50265 1.11318 10.8528H1.11228C1.11228 12.3934 1.27578 13.8711 1.55877 15.3109H34.4414V15.3099ZM34.1593 16.5838H1.84266C3.94578 24.684 10.3962 30.5945 18.001 30.5945C25.6058 30.5945 32.0562 24.685 34.1593 16.5838ZM14.1002 49.7009H21.8901L18.001 46.0577L14.1002 49.7009Z" fill="#042B60"/>
</g>
<defs>
<clipPath id="clip0_883_13442">
<rect width="36" height="51" fill="white"/>
</clipPath>
</defs>
</svg>
