<svg width="46" height="44" viewBox="0 0 46 44" fill="none" xmlns="http://www.w3.org/2000/svg">
<path d="M45.4627 16.3384H24.2802V13.3015C24.2802 5.96712 18.8348 0 12.1401 0C5.44537 0 0 5.96712 0 13.3006V17.4098C0 17.7056 0.240115 17.9455 0.536349 17.9455H4.8299C5.12614 17.9455 5.36625 17.7056 5.36625 17.4098V13.3006C5.36625 8.9222 8.40495 5.35975 12.1401 5.35975C15.8752 5.35975 18.9139 8.9222 18.9139 13.3015V16.3384H16.4741C16.1779 16.3384 15.9378 16.5791 15.9378 16.875V42.6124C15.9378 42.9092 16.1779 43.1481 16.4741 43.1481H45.4636C45.7608 43.1481 46 42.9083 46 42.6124V16.8741C46 16.5782 45.7599 16.3384 45.4627 16.3384ZM12.1401 3.75173C7.51717 3.75173 3.75628 8.03549 3.75628 13.3006V16.3384H1.60997V13.3006C1.60997 6.85291 6.33315 1.60802 12.1401 1.60802C17.947 1.60802 22.6702 6.85383 22.6702 13.3015V16.3384H20.5239V13.3015C20.5239 8.03549 16.763 3.75173 12.1401 3.75173ZM44.3891 41.5401H17.5477V17.9464H44.3909L44.3891 41.5401Z" fill="black"/>
<path d="M29.4475 29.6832V31.7139C29.4475 32.0107 29.6876 32.2496 29.9839 32.2496H31.9526C32.2498 32.2496 32.489 32.0098 32.489 31.7139V29.6832C33.1514 29.2017 33.5516 28.4299 33.5516 27.5992C33.5516 26.1768 32.3924 25.019 30.9683 25.019C29.5441 25.019 28.3859 26.1768 28.3859 27.5983C28.3849 28.429 28.7851 29.2008 29.4475 29.6823V29.6832ZM30.9692 26.628C31.5064 26.628 31.9425 27.0635 31.9425 27.6001C31.9425 27.9833 31.7134 28.3316 31.3592 28.4878L31.2001 28.5585C31.1044 28.6008 31.0244 28.6697 30.9683 28.7533C30.9121 28.6697 30.8321 28.6008 30.7355 28.5585L30.5763 28.4887C30.2221 28.3325 29.9931 27.9842 29.9931 27.602C29.994 27.0654 30.4319 26.6289 30.9683 26.6289L30.9692 26.628Z" fill="black"/>
</svg>
