<svg width="32" height="44" viewBox="0 0 32 44" fill="none" xmlns="http://www.w3.org/2000/svg">
<g clip-path="url(#clip0_980_5998)">
<path d="M1.63708 14.3086H30.363C28.4935 21.2979 22.7599 26.3963 16 26.3963C9.2402 26.3963 3.50652 21.297 1.63708 14.3086Z" fill="#042B60"/>
<path d="M29.8393 0.296997C31.2439 3.04416 31.9802 6.17641 31.9802 9.36301C31.9802 19.1756 25.0742 27.1752 16.4841 27.4615V38.7691L21.0167 42.8781H22.7792V43.9772H9.22038V42.8781H10.9836L15.5162 38.7682V27.4606C6.92531 27.1761 0.0201416 19.1756 0.0201416 9.36301C0.0201416 6.17641 0.755618 3.04416 2.16029 0.296997C2.24733 0.132094 2.40225 0.0224609 2.57634 0.0224609H29.4232C29.5973 0.0224609 29.753 0.132094 29.8393 0.296997ZM30.6139 13.2083C30.8662 11.967 31.0116 10.6922 31.0116 9.36301C31.0116 6.47269 30.3623 3.62676 29.1421 1.12151H2.85823C1.63723 3.62676 0.988798 6.47269 0.988798 9.36301H0.987999C0.987999 10.6922 1.13334 11.967 1.38488 13.2092H30.6139V13.2083ZM30.3631 14.3074H1.63723C3.50667 21.2958 9.24035 26.3951 16.0002 26.3951C22.76 26.3951 28.4937 21.2967 30.3631 14.3074ZM12.5328 42.879H19.4572L16.0002 39.7359L12.5328 42.879Z" fill="#042B60"/>
</g>
<defs>
<clipPath id="clip0_980_5998">
<rect width="32" height="44" fill="white"/>
</clipPath>
</defs>
</svg>
