<svg width="51" height="29" viewBox="0 0 51 29" fill="none" xmlns="http://www.w3.org/2000/svg">
<path d="M10.2479 11.0967V11.2467V14.1181V14.2161L10.1582 14.2555C9.54849 14.5233 8.86484 14.6557 8.11092 14.6557C7.11979 14.6557 6.33862 14.3657 5.79054 13.7655C5.24505 13.1681 4.98257 12.3325 4.98257 11.2815C4.98257 10.6207 5.1138 10.0299 5.38035 9.51075C5.6475 8.99039 6.03114 8.58655 6.53059 8.3015L6.53081 8.30138C7.02961 8.01785 7.59866 7.87686 8.23589 7.87686C8.91893 7.87686 9.53706 8.00656 10.0872 8.27049L10.2171 8.33286L10.16 8.46522L9.98879 8.86146L9.9269 9.00471L9.7862 8.93721C9.27867 8.6937 8.75364 8.5731 8.21069 8.5731C7.44326 8.5731 6.84954 8.81654 6.41192 9.29315C5.97276 9.77143 5.7457 10.4223 5.7457 11.2641C5.7457 12.1895 5.9645 12.8595 6.37521 13.2991L10.2479 11.0967ZM10.2479 11.0967H10.0979M10.2479 11.0967H10.0979M10.0979 11.0967H7.85362H7.85257H7.70257V11.2467V11.6603V11.8103H7.85257H9.51415M10.0979 11.0967L9.51415 11.8103M9.51415 11.8103V13.7707C9.16282 13.9011 8.73824 13.9681 8.23589 13.9681C7.39702 13.9681 6.786 13.7376 6.37533 13.2992L9.51415 11.8103Z" fill="#042B60" stroke="#042B60" stroke-width="0.3"/>
<path d="M14.2111 11.6383C14.5866 11.5022 14.8826 11.297 15.0898 11.018C15.3276 10.699 15.4419 10.3099 15.4419 9.86135C15.4419 9.24871 15.2494 8.76577 14.8436 8.44147C14.4436 8.12169 13.8452 7.97549 13.076 7.97549H11.6267H11.4767V8.12549V14.4198V14.5698H11.6267H12.051H12.201V14.4198V11.8275H13.4763L15.0031 14.4943L15.0463 14.5698H15.1333H15.6416H15.9012L15.7715 14.3448L14.2111 11.6383ZM14.3222 8.96637L14.3224 8.96654C14.5519 9.14645 14.6819 9.45986 14.6819 9.89501C14.6819 10.3255 14.5523 10.6275 14.3115 10.8285C14.0638 11.0353 13.7045 11.1487 13.2125 11.1487H12.1989V8.67173H13.0571C13.6749 8.67173 14.0853 8.77991 14.3222 8.96637Z" fill="#042B60" stroke="#042B60" stroke-width="0.3"/>
<path d="M16.3039 14.5685H16.4071L16.444 14.4721L17.2567 12.3473H19.5243L20.3329 14.4718L20.3697 14.5685H20.4731H20.952H21.1694L21.0923 14.3652L18.6936 8.04492L18.6569 7.94814H18.5534H18.2824H18.1797L18.1426 8.04395L15.6935 14.3643L15.6144 14.5685H15.8334H16.3039ZM19.2715 11.6511H17.5249L18.3015 9.59521C18.3397 9.49935 18.3765 9.39909 18.412 9.29443C18.4497 9.40513 18.4847 9.50206 18.517 9.58514L19.2715 11.6511Z" fill="#042B60" stroke="#042B60" stroke-width="0.3"/>
<path d="M23.3997 14.5698H23.5497V14.4198V8.6891H25.3783H25.5283V8.5391V8.12549V7.97549H25.3783H20.9927H20.8427V8.12549V8.5391V8.6891H20.9927H22.8212V14.4198V14.5698H22.9712H23.3997Z" fill="#042B60" stroke="#042B60" stroke-width="0.3"/>
<path d="M26.1326 14.4198V14.5698H26.2826H26.7069H26.8569V14.4198V8.12549V7.97549H26.7069H26.2826H26.1326V8.12549V14.4198Z" fill="#042B60" stroke="#042B60" stroke-width="0.3"/>
<path d="M31.3272 14.1609L31.3274 14.1608C31.7011 13.8528 31.9035 13.4442 31.9368 12.9466H31.9428V12.7966C31.9428 12.4908 31.8834 12.2197 31.7599 11.9913L31.7597 11.9911C31.6353 11.762 31.4419 11.565 31.1884 11.3953C30.9348 11.2255 30.5644 11.0568 30.086 10.8861C29.6345 10.7193 29.329 10.5818 29.1581 10.472C28.9867 10.3619 28.873 10.2453 28.8064 10.1235L28.8062 10.1231C28.7402 10.0033 28.7019 9.83935 28.7019 9.62338C28.7019 9.29431 28.8179 9.04583 29.0461 8.86193C29.2792 8.67411 29.5893 8.57271 30.0264 8.57271C30.4635 8.57271 30.9263 8.67559 31.4162 8.88718L31.5568 8.94791L31.6145 8.80608L31.7689 8.42721L31.8238 8.29259L31.691 8.23354C31.1678 8.00097 30.5987 7.88516 30.018 7.88516C29.4299 7.88516 28.9346 8.04056 28.5452 8.365C28.1534 8.69133 27.9556 9.11698 27.9556 9.63206C27.9556 10.0887 28.0831 10.4699 28.3513 10.7607L28.3515 10.761C28.6143 11.0446 29.0722 11.2933 29.6998 11.5168L29.7002 11.517C30.1214 11.6657 30.4332 11.8009 30.6403 11.9228C30.8459 12.0438 30.9826 12.1718 31.0638 12.3018C31.1427 12.428 31.187 12.5959 31.187 12.8139C31.187 13.1553 31.0605 13.4224 30.8038 13.6298C30.5451 13.8387 30.186 13.9515 29.7092 13.9515C29.0415 13.9515 28.5051 13.8564 28.0912 13.6753L27.881 13.5833V13.8127V14.2513V14.3504L27.9721 14.3892C28.3966 14.5703 28.9916 14.6553 29.7428 14.6553C30.3872 14.6553 30.9197 14.4958 31.3272 14.1609Z" fill="#042B60" stroke="#042B60" stroke-width="0.3"/>
<ellipse cx="9.31581" cy="23.6317" rx="3.25404" ry="3.6156" fill="#042B60"/>
<circle cx="42.2178" cy="23.6317" r="3.6156" fill="#042B60"/>
<mask id="path-9-outside-1_980_5983" maskUnits="userSpaceOnUse" x="0" y="-0.508301" width="51" height="29" fill="black">
<rect fill="white" y="-0.508301" width="51" height="29"/>
<path d="M50.6216 16.0461V24.1348H46.0701C45.9136 26.2767 44.1808 27.9702 42.0699 27.9702C39.959 27.9702 38.2273 26.2756 38.0697 24.1348H13.3125C13.156 26.2767 11.4232 27.9702 9.31228 27.9702C7.20139 27.9702 5.46857 26.2756 5.31104 24.1348H1V0.491699H36.758V7.9595H47.1959L50.6216 16.0461ZM50.0094 23.5008V16.1123L46.7968 8.5924H36.758V23.5008H38.0645C38.0655 23.4802 38.0708 23.4618 38.0718 23.4422C38.0771 23.3825 38.0855 23.325 38.0928 23.2664C38.1033 23.1893 38.1128 23.1133 38.1264 23.0395C38.138 22.9798 38.1527 22.9211 38.1653 22.8625C38.1821 22.7909 38.1989 22.7192 38.2188 22.6497C38.2346 22.5911 38.2546 22.5336 38.2735 22.4739C38.2966 22.4077 38.3197 22.3414 38.3438 22.2763C38.3669 22.2188 38.3911 22.1612 38.4163 22.1048C38.4436 22.0418 38.4719 21.9799 38.5035 21.9191C38.5308 21.8627 38.5602 21.8073 38.5906 21.753C38.6232 21.6944 38.6568 21.638 38.6925 21.5804C38.7261 21.5272 38.7597 21.4751 38.7954 21.423C38.8332 21.3687 38.871 21.3155 38.9109 21.2634C38.9487 21.2135 38.9876 21.1636 39.0275 21.1147C39.0695 21.0659 39.1126 21.017 39.1567 20.9692C39.1987 20.9237 39.2417 20.8759 39.2869 20.8325C39.3321 20.7869 39.3804 20.7424 39.4276 20.6989C39.4738 20.6577 39.5211 20.6153 39.5683 20.5752C39.6188 20.535 39.6713 20.4959 39.7238 20.4558C39.7731 20.4188 39.8225 20.3819 39.8729 20.3472C39.9275 20.3103 39.9842 20.2766 40.0409 20.2419C40.0934 20.2104 40.1449 20.1778 40.1985 20.1485C40.2583 20.1149 40.3192 20.0867 40.3812 20.0573C40.4348 20.0313 40.4883 20.0042 40.544 19.9803C40.608 19.9531 40.6753 19.9303 40.7404 19.9054C40.795 19.8858 40.8485 19.8641 40.9042 19.8467C40.9767 19.8239 41.0502 19.8066 41.1226 19.7881C41.1751 19.7751 41.2266 19.7599 41.2802 19.748C41.3631 19.7306 41.4471 19.7197 41.5322 19.7078C41.5784 19.7013 41.6236 19.6926 41.6698 19.6872C41.8021 19.6741 41.9344 19.6665 42.0699 19.6665C42.2054 19.6665 42.3377 19.6741 42.47 19.6872C42.5162 19.6926 42.5625 19.7013 42.6087 19.7078C42.6927 19.7197 42.7767 19.7306 42.8597 19.748C42.9132 19.7599 42.9647 19.7751 43.0172 19.7881C43.0896 19.8066 43.1632 19.8239 43.2356 19.8467C43.2913 19.8641 43.3448 19.8858 43.3995 19.9054C43.4656 19.9303 43.5318 19.952 43.5969 19.9803C43.6515 20.0042 43.7051 20.0313 43.7586 20.0573C43.8206 20.0867 43.8815 20.1149 43.9414 20.1485C43.996 20.1768 44.0464 20.2093 44.0989 20.2419C44.1545 20.2766 44.2113 20.3103 44.2669 20.3472C44.3173 20.3819 44.3677 20.4188 44.416 20.4558C44.4686 20.4948 44.5211 20.535 44.5715 20.5752C44.6198 20.6153 44.666 20.6566 44.7122 20.6989C44.7595 20.7424 44.8078 20.7869 44.8529 20.8325C44.8981 20.877 44.9411 20.9237 44.9831 20.9692C45.0273 21.017 45.0703 21.0659 45.1123 21.1147C45.1522 21.1636 45.1911 21.2135 45.2289 21.2634C45.2688 21.3166 45.3066 21.3687 45.3444 21.423C45.3801 21.4751 45.4137 21.5272 45.4473 21.5804C45.483 21.6369 45.5166 21.6944 45.5492 21.753C45.5797 21.8073 45.6091 21.8627 45.6374 21.9191C45.6679 21.9799 45.6962 22.0418 45.7235 22.1048C45.7498 22.1601 45.7729 22.2177 45.796 22.2763C45.8212 22.3414 45.8433 22.4077 45.8664 22.4739C45.8853 22.5325 45.9052 22.5911 45.921 22.6497C45.9409 22.7192 45.9577 22.7909 45.9745 22.8625C45.9882 22.9211 46.0018 22.9798 46.0134 23.0395C46.027 23.1144 46.0365 23.1893 46.047 23.2642C46.0543 23.3239 46.0627 23.3825 46.068 23.4422C46.0701 23.4618 46.0743 23.4813 46.0753 23.5008H50.0094ZM45.4736 23.8168C45.4736 21.8757 43.9477 20.2983 42.0699 20.2983C40.1922 20.2983 38.6662 21.8757 38.6662 23.8168C38.6662 25.7578 40.1943 27.3352 42.0699 27.3352C43.9456 27.3352 45.4736 25.7567 45.4736 23.8168ZM36.1458 23.5008V1.1246H1.61226V23.5008H5.30474C5.30684 23.4813 5.30999 23.4639 5.31209 23.4455C5.31734 23.3814 5.32575 23.3206 5.33415 23.2566C5.3436 23.1849 5.35305 23.1122 5.36565 23.0416C5.37721 22.9787 5.39191 22.919 5.40556 22.8582C5.42131 22.7887 5.43707 22.7181 5.45702 22.6497C5.47487 22.5911 5.49378 22.5314 5.51268 22.4728C5.53473 22.4055 5.55784 22.3403 5.58304 22.2752C5.6051 22.2177 5.62925 22.1601 5.65446 22.1037C5.68281 22.0407 5.71117 21.9788 5.74267 21.917C5.76998 21.8616 5.79938 21.8073 5.82879 21.7541C5.86134 21.6944 5.896 21.6358 5.93276 21.5783C5.96426 21.5251 5.99787 21.474 6.03253 21.4241C6.07138 21.3677 6.11024 21.3134 6.15225 21.2602C6.18901 21.2102 6.22681 21.1625 6.26567 21.1158C6.30873 21.0637 6.35284 21.0148 6.39799 20.9649C6.44 20.9204 6.48201 20.8759 6.52507 20.8325C6.57233 20.7858 6.62168 20.7402 6.67104 20.6946C6.7162 20.6544 6.76136 20.6143 6.80757 20.5752C6.86008 20.5328 6.91364 20.4927 6.9672 20.4514C7.01551 20.4156 7.06277 20.3809 7.11318 20.3461C7.16884 20.3081 7.22765 20.2734 7.28541 20.2386C7.33687 20.2072 7.38623 20.1757 7.43874 20.1474C7.4986 20.1138 7.56161 20.0845 7.62567 20.0541C7.67713 20.028 7.72964 20.002 7.7832 19.9792C7.84831 19.951 7.91657 19.9271 7.98379 19.9032C8.03735 19.8837 8.09091 19.8619 8.14446 19.8446C8.21693 19.8218 8.29149 19.8044 8.36501 19.7859C8.41752 19.7729 8.46792 19.7577 8.52043 19.7458C8.6034 19.7295 8.68952 19.7186 8.77353 19.7067C8.81974 19.7002 8.86385 19.6915 8.91006 19.6861C9.04238 19.673 9.17575 19.6654 9.31123 19.6654C9.4467 19.6654 9.58008 19.673 9.71135 19.6861C9.75756 19.6915 9.80167 19.7002 9.84683 19.7067C9.93189 19.7176 10.018 19.7295 10.101 19.7458C10.1535 19.7577 10.2039 19.7729 10.2543 19.7859C10.3299 19.8044 10.4045 19.8218 10.478 19.8446C10.5316 19.8619 10.583 19.8826 10.6355 19.9021C10.7038 19.926 10.772 19.951 10.8393 19.9792C10.8918 20.0009 10.9432 20.028 10.9947 20.0519C11.0577 20.0823 11.1218 20.1116 11.1837 20.1464C11.2352 20.1746 11.2845 20.205 11.3339 20.2365C11.3927 20.2723 11.4526 20.307 11.5093 20.3461C11.5586 20.3798 11.6049 20.4145 11.6521 20.4503C11.7078 20.4905 11.7624 20.5328 11.8149 20.5752C11.86 20.6143 11.9042 20.6544 11.9483 20.6935C11.9997 20.7402 12.0491 20.7858 12.0974 20.8335C12.1394 20.8759 12.1814 20.9204 12.2213 20.9649C12.2675 21.0148 12.3127 21.0659 12.3568 21.1169C12.3946 21.1647 12.4314 21.2113 12.4681 21.2591C12.5091 21.3145 12.55 21.3698 12.5889 21.4263C12.6235 21.4762 12.6561 21.5262 12.6876 21.5772C12.7244 21.6358 12.759 21.6955 12.7926 21.7563C12.822 21.8084 12.8504 21.8627 12.8777 21.917C12.9092 21.9788 12.9386 22.0407 12.9659 22.1048C12.9911 22.1612 13.0153 22.2177 13.0384 22.2752C13.0625 22.3403 13.0856 22.4077 13.1077 22.4739C13.1276 22.5314 13.1465 22.5911 13.1633 22.6508C13.1822 22.7192 13.199 22.7898 13.2148 22.8593C13.2285 22.9201 13.2432 22.9798 13.2547 23.0416C13.2673 23.1133 13.2778 23.186 13.2862 23.2577C13.2946 23.3206 13.3041 23.3825 13.3093 23.4466C13.3104 23.465 13.3146 23.4824 13.3156 23.5008H36.1458ZM12.716 23.8168C12.716 21.8757 11.189 20.2983 9.31228 20.2983C7.43558 20.2983 5.9086 21.8757 5.9086 23.8168C5.9086 25.7578 7.43558 27.3352 9.31228 27.3352C11.189 27.3352 12.716 25.7567 12.716 23.8168Z"/>
</mask>
<path d="M50.6216 16.0461V24.1348H46.0701C45.9136 26.2767 44.1808 27.9702 42.0699 27.9702C39.959 27.9702 38.2273 26.2756 38.0697 24.1348H13.3125C13.156 26.2767 11.4232 27.9702 9.31228 27.9702C7.20139 27.9702 5.46857 26.2756 5.31104 24.1348H1V0.491699H36.758V7.9595H47.1959L50.6216 16.0461ZM50.0094 23.5008V16.1123L46.7968 8.5924H36.758V23.5008H38.0645C38.0655 23.4802 38.0708 23.4618 38.0718 23.4422C38.0771 23.3825 38.0855 23.325 38.0928 23.2664C38.1033 23.1893 38.1128 23.1133 38.1264 23.0395C38.138 22.9798 38.1527 22.9211 38.1653 22.8625C38.1821 22.7909 38.1989 22.7192 38.2188 22.6497C38.2346 22.5911 38.2546 22.5336 38.2735 22.4739C38.2966 22.4077 38.3197 22.3414 38.3438 22.2763C38.3669 22.2188 38.3911 22.1612 38.4163 22.1048C38.4436 22.0418 38.4719 21.9799 38.5035 21.9191C38.5308 21.8627 38.5602 21.8073 38.5906 21.753C38.6232 21.6944 38.6568 21.638 38.6925 21.5804C38.7261 21.5272 38.7597 21.4751 38.7954 21.423C38.8332 21.3687 38.871 21.3155 38.9109 21.2634C38.9487 21.2135 38.9876 21.1636 39.0275 21.1147C39.0695 21.0659 39.1126 21.017 39.1567 20.9692C39.1987 20.9237 39.2417 20.8759 39.2869 20.8325C39.3321 20.7869 39.3804 20.7424 39.4276 20.6989C39.4738 20.6577 39.5211 20.6153 39.5683 20.5752C39.6188 20.535 39.6713 20.4959 39.7238 20.4558C39.7731 20.4188 39.8225 20.3819 39.8729 20.3472C39.9275 20.3103 39.9842 20.2766 40.0409 20.2419C40.0934 20.2104 40.1449 20.1778 40.1985 20.1485C40.2583 20.1149 40.3192 20.0867 40.3812 20.0573C40.4348 20.0313 40.4883 20.0042 40.544 19.9803C40.608 19.9531 40.6753 19.9303 40.7404 19.9054C40.795 19.8858 40.8485 19.8641 40.9042 19.8467C40.9767 19.8239 41.0502 19.8066 41.1226 19.7881C41.1751 19.7751 41.2266 19.7599 41.2802 19.748C41.3631 19.7306 41.4471 19.7197 41.5322 19.7078C41.5784 19.7013 41.6236 19.6926 41.6698 19.6872C41.8021 19.6741 41.9344 19.6665 42.0699 19.6665C42.2054 19.6665 42.3377 19.6741 42.47 19.6872C42.5162 19.6926 42.5625 19.7013 42.6087 19.7078C42.6927 19.7197 42.7767 19.7306 42.8597 19.748C42.9132 19.7599 42.9647 19.7751 43.0172 19.7881C43.0896 19.8066 43.1632 19.8239 43.2356 19.8467C43.2913 19.8641 43.3448 19.8858 43.3995 19.9054C43.4656 19.9303 43.5318 19.952 43.5969 19.9803C43.6515 20.0042 43.7051 20.0313 43.7586 20.0573C43.8206 20.0867 43.8815 20.1149 43.9414 20.1485C43.996 20.1768 44.0464 20.2093 44.0989 20.2419C44.1545 20.2766 44.2113 20.3103 44.2669 20.3472C44.3173 20.3819 44.3677 20.4188 44.416 20.4558C44.4686 20.4948 44.5211 20.535 44.5715 20.5752C44.6198 20.6153 44.666 20.6566 44.7122 20.6989C44.7595 20.7424 44.8078 20.7869 44.8529 20.8325C44.8981 20.877 44.9411 20.9237 44.9831 20.9692C45.0273 21.017 45.0703 21.0659 45.1123 21.1147C45.1522 21.1636 45.1911 21.2135 45.2289 21.2634C45.2688 21.3166 45.3066 21.3687 45.3444 21.423C45.3801 21.4751 45.4137 21.5272 45.4473 21.5804C45.483 21.6369 45.5166 21.6944 45.5492 21.753C45.5797 21.8073 45.6091 21.8627 45.6374 21.9191C45.6679 21.9799 45.6962 22.0418 45.7235 22.1048C45.7498 22.1601 45.7729 22.2177 45.796 22.2763C45.8212 22.3414 45.8433 22.4077 45.8664 22.4739C45.8853 22.5325 45.9052 22.5911 45.921 22.6497C45.9409 22.7192 45.9577 22.7909 45.9745 22.8625C45.9882 22.9211 46.0018 22.9798 46.0134 23.0395C46.027 23.1144 46.0365 23.1893 46.047 23.2642C46.0543 23.3239 46.0627 23.3825 46.068 23.4422C46.0701 23.4618 46.0743 23.4813 46.0753 23.5008H50.0094ZM45.4736 23.8168C45.4736 21.8757 43.9477 20.2983 42.0699 20.2983C40.1922 20.2983 38.6662 21.8757 38.6662 23.8168C38.6662 25.7578 40.1943 27.3352 42.0699 27.3352C43.9456 27.3352 45.4736 25.7567 45.4736 23.8168ZM36.1458 23.5008V1.1246H1.61226V23.5008H5.30474C5.30684 23.4813 5.30999 23.4639 5.31209 23.4455C5.31734 23.3814 5.32575 23.3206 5.33415 23.2566C5.3436 23.1849 5.35305 23.1122 5.36565 23.0416C5.37721 22.9787 5.39191 22.919 5.40556 22.8582C5.42131 22.7887 5.43707 22.7181 5.45702 22.6497C5.47487 22.5911 5.49378 22.5314 5.51268 22.4728C5.53473 22.4055 5.55784 22.3403 5.58304 22.2752C5.6051 22.2177 5.62925 22.1601 5.65446 22.1037C5.68281 22.0407 5.71117 21.9788 5.74267 21.917C5.76998 21.8616 5.79938 21.8073 5.82879 21.7541C5.86134 21.6944 5.896 21.6358 5.93276 21.5783C5.96426 21.5251 5.99787 21.474 6.03253 21.4241C6.07138 21.3677 6.11024 21.3134 6.15225 21.2602C6.18901 21.2102 6.22681 21.1625 6.26567 21.1158C6.30873 21.0637 6.35284 21.0148 6.39799 20.9649C6.44 20.9204 6.48201 20.8759 6.52507 20.8325C6.57233 20.7858 6.62168 20.7402 6.67104 20.6946C6.7162 20.6544 6.76136 20.6143 6.80757 20.5752C6.86008 20.5328 6.91364 20.4927 6.9672 20.4514C7.01551 20.4156 7.06277 20.3809 7.11318 20.3461C7.16884 20.3081 7.22765 20.2734 7.28541 20.2386C7.33687 20.2072 7.38623 20.1757 7.43874 20.1474C7.4986 20.1138 7.56161 20.0845 7.62567 20.0541C7.67713 20.028 7.72964 20.002 7.7832 19.9792C7.84831 19.951 7.91657 19.9271 7.98379 19.9032C8.03735 19.8837 8.09091 19.8619 8.14446 19.8446C8.21693 19.8218 8.29149 19.8044 8.36501 19.7859C8.41752 19.7729 8.46792 19.7577 8.52043 19.7458C8.6034 19.7295 8.68952 19.7186 8.77353 19.7067C8.81974 19.7002 8.86385 19.6915 8.91006 19.6861C9.04238 19.673 9.17575 19.6654 9.31123 19.6654C9.4467 19.6654 9.58008 19.673 9.71135 19.6861C9.75756 19.6915 9.80167 19.7002 9.84683 19.7067C9.93189 19.7176 10.018 19.7295 10.101 19.7458C10.1535 19.7577 10.2039 19.7729 10.2543 19.7859C10.3299 19.8044 10.4045 19.8218 10.478 19.8446C10.5316 19.8619 10.583 19.8826 10.6355 19.9021C10.7038 19.926 10.772 19.951 10.8393 19.9792C10.8918 20.0009 10.9432 20.028 10.9947 20.0519C11.0577 20.0823 11.1218 20.1116 11.1837 20.1464C11.2352 20.1746 11.2845 20.205 11.3339 20.2365C11.3927 20.2723 11.4526 20.307 11.5093 20.3461C11.5586 20.3798 11.6049 20.4145 11.6521 20.4503C11.7078 20.4905 11.7624 20.5328 11.8149 20.5752C11.86 20.6143 11.9042 20.6544 11.9483 20.6935C11.9997 20.7402 12.0491 20.7858 12.0974 20.8335C12.1394 20.8759 12.1814 20.9204 12.2213 20.9649C12.2675 21.0148 12.3127 21.0659 12.3568 21.1169C12.3946 21.1647 12.4314 21.2113 12.4681 21.2591C12.5091 21.3145 12.55 21.3698 12.5889 21.4263C12.6235 21.4762 12.6561 21.5262 12.6876 21.5772C12.7244 21.6358 12.759 21.6955 12.7926 21.7563C12.822 21.8084 12.8504 21.8627 12.8777 21.917C12.9092 21.9788 12.9386 22.0407 12.9659 22.1048C12.9911 22.1612 13.0153 22.2177 13.0384 22.2752C13.0625 22.3403 13.0856 22.4077 13.1077 22.4739C13.1276 22.5314 13.1465 22.5911 13.1633 22.6508C13.1822 22.7192 13.199 22.7898 13.2148 22.8593C13.2285 22.9201 13.2432 22.9798 13.2547 23.0416C13.2673 23.1133 13.2778 23.186 13.2862 23.2577C13.2946 23.3206 13.3041 23.3825 13.3093 23.4466C13.3104 23.465 13.3146 23.4824 13.3156 23.5008H36.1458ZM12.716 23.8168C12.716 21.8757 11.189 20.2983 9.31228 20.2983C7.43558 20.2983 5.9086 21.8757 5.9086 23.8168C5.9086 25.7578 7.43558 27.3352 9.31228 27.3352C11.189 27.3352 12.716 25.7567 12.716 23.8168Z" fill="black"/>
<path d="M50.6216 16.0461V24.1348H46.0701C45.9136 26.2767 44.1808 27.9702 42.0699 27.9702C39.959 27.9702 38.2273 26.2756 38.0697 24.1348H13.3125C13.156 26.2767 11.4232 27.9702 9.31228 27.9702C7.20139 27.9702 5.46857 26.2756 5.31104 24.1348H1V0.491699H36.758V7.9595H47.1959L50.6216 16.0461ZM50.0094 23.5008V16.1123L46.7968 8.5924H36.758V23.5008H38.0645C38.0655 23.4802 38.0708 23.4618 38.0718 23.4422C38.0771 23.3825 38.0855 23.325 38.0928 23.2664C38.1033 23.1893 38.1128 23.1133 38.1264 23.0395C38.138 22.9798 38.1527 22.9211 38.1653 22.8625C38.1821 22.7909 38.1989 22.7192 38.2188 22.6497C38.2346 22.5911 38.2546 22.5336 38.2735 22.4739C38.2966 22.4077 38.3197 22.3414 38.3438 22.2763C38.3669 22.2188 38.3911 22.1612 38.4163 22.1048C38.4436 22.0418 38.4719 21.9799 38.5035 21.9191C38.5308 21.8627 38.5602 21.8073 38.5906 21.753C38.6232 21.6944 38.6568 21.638 38.6925 21.5804C38.7261 21.5272 38.7597 21.4751 38.7954 21.423C38.8332 21.3687 38.871 21.3155 38.9109 21.2634C38.9487 21.2135 38.9876 21.1636 39.0275 21.1147C39.0695 21.0659 39.1126 21.017 39.1567 20.9692C39.1987 20.9237 39.2417 20.8759 39.2869 20.8325C39.3321 20.7869 39.3804 20.7424 39.4276 20.6989C39.4738 20.6577 39.5211 20.6153 39.5683 20.5752C39.6188 20.535 39.6713 20.4959 39.7238 20.4558C39.7731 20.4188 39.8225 20.3819 39.8729 20.3472C39.9275 20.3103 39.9842 20.2766 40.0409 20.2419C40.0934 20.2104 40.1449 20.1778 40.1985 20.1485C40.2583 20.1149 40.3192 20.0867 40.3812 20.0573C40.4348 20.0313 40.4883 20.0042 40.544 19.9803C40.608 19.9531 40.6753 19.9303 40.7404 19.9054C40.795 19.8858 40.8485 19.8641 40.9042 19.8467C40.9767 19.8239 41.0502 19.8066 41.1226 19.7881C41.1751 19.7751 41.2266 19.7599 41.2802 19.748C41.3631 19.7306 41.4471 19.7197 41.5322 19.7078C41.5784 19.7013 41.6236 19.6926 41.6698 19.6872C41.8021 19.6741 41.9344 19.6665 42.0699 19.6665C42.2054 19.6665 42.3377 19.6741 42.47 19.6872C42.5162 19.6926 42.5625 19.7013 42.6087 19.7078C42.6927 19.7197 42.7767 19.7306 42.8597 19.748C42.9132 19.7599 42.9647 19.7751 43.0172 19.7881C43.0896 19.8066 43.1632 19.8239 43.2356 19.8467C43.2913 19.8641 43.3448 19.8858 43.3995 19.9054C43.4656 19.9303 43.5318 19.952 43.5969 19.9803C43.6515 20.0042 43.7051 20.0313 43.7586 20.0573C43.8206 20.0867 43.8815 20.1149 43.9414 20.1485C43.996 20.1768 44.0464 20.2093 44.0989 20.2419C44.1545 20.2766 44.2113 20.3103 44.2669 20.3472C44.3173 20.3819 44.3677 20.4188 44.416 20.4558C44.4686 20.4948 44.5211 20.535 44.5715 20.5752C44.6198 20.6153 44.666 20.6566 44.7122 20.6989C44.7595 20.7424 44.8078 20.7869 44.8529 20.8325C44.8981 20.877 44.9411 20.9237 44.9831 20.9692C45.0273 21.017 45.0703 21.0659 45.1123 21.1147C45.1522 21.1636 45.1911 21.2135 45.2289 21.2634C45.2688 21.3166 45.3066 21.3687 45.3444 21.423C45.3801 21.4751 45.4137 21.5272 45.4473 21.5804C45.483 21.6369 45.5166 21.6944 45.5492 21.753C45.5797 21.8073 45.6091 21.8627 45.6374 21.9191C45.6679 21.9799 45.6962 22.0418 45.7235 22.1048C45.7498 22.1601 45.7729 22.2177 45.796 22.2763C45.8212 22.3414 45.8433 22.4077 45.8664 22.4739C45.8853 22.5325 45.9052 22.5911 45.921 22.6497C45.9409 22.7192 45.9577 22.7909 45.9745 22.8625C45.9882 22.9211 46.0018 22.9798 46.0134 23.0395C46.027 23.1144 46.0365 23.1893 46.047 23.2642C46.0543 23.3239 46.0627 23.3825 46.068 23.4422C46.0701 23.4618 46.0743 23.4813 46.0753 23.5008H50.0094ZM45.4736 23.8168C45.4736 21.8757 43.9477 20.2983 42.0699 20.2983C40.1922 20.2983 38.6662 21.8757 38.6662 23.8168C38.6662 25.7578 40.1943 27.3352 42.0699 27.3352C43.9456 27.3352 45.4736 25.7567 45.4736 23.8168ZM36.1458 23.5008V1.1246H1.61226V23.5008H5.30474C5.30684 23.4813 5.30999 23.4639 5.31209 23.4455C5.31734 23.3814 5.32575 23.3206 5.33415 23.2566C5.3436 23.1849 5.35305 23.1122 5.36565 23.0416C5.37721 22.9787 5.39191 22.919 5.40556 22.8582C5.42131 22.7887 5.43707 22.7181 5.45702 22.6497C5.47487 22.5911 5.49378 22.5314 5.51268 22.4728C5.53473 22.4055 5.55784 22.3403 5.58304 22.2752C5.6051 22.2177 5.62925 22.1601 5.65446 22.1037C5.68281 22.0407 5.71117 21.9788 5.74267 21.917C5.76998 21.8616 5.79938 21.8073 5.82879 21.7541C5.86134 21.6944 5.896 21.6358 5.93276 21.5783C5.96426 21.5251 5.99787 21.474 6.03253 21.4241C6.07138 21.3677 6.11024 21.3134 6.15225 21.2602C6.18901 21.2102 6.22681 21.1625 6.26567 21.1158C6.30873 21.0637 6.35284 21.0148 6.39799 20.9649C6.44 20.9204 6.48201 20.8759 6.52507 20.8325C6.57233 20.7858 6.62168 20.7402 6.67104 20.6946C6.7162 20.6544 6.76136 20.6143 6.80757 20.5752C6.86008 20.5328 6.91364 20.4927 6.9672 20.4514C7.01551 20.4156 7.06277 20.3809 7.11318 20.3461C7.16884 20.3081 7.22765 20.2734 7.28541 20.2386C7.33687 20.2072 7.38623 20.1757 7.43874 20.1474C7.4986 20.1138 7.56161 20.0845 7.62567 20.0541C7.67713 20.028 7.72964 20.002 7.7832 19.9792C7.84831 19.951 7.91657 19.9271 7.98379 19.9032C8.03735 19.8837 8.09091 19.8619 8.14446 19.8446C8.21693 19.8218 8.29149 19.8044 8.36501 19.7859C8.41752 19.7729 8.46792 19.7577 8.52043 19.7458C8.6034 19.7295 8.68952 19.7186 8.77353 19.7067C8.81974 19.7002 8.86385 19.6915 8.91006 19.6861C9.04238 19.673 9.17575 19.6654 9.31123 19.6654C9.4467 19.6654 9.58008 19.673 9.71135 19.6861C9.75756 19.6915 9.80167 19.7002 9.84683 19.7067C9.93189 19.7176 10.018 19.7295 10.101 19.7458C10.1535 19.7577 10.2039 19.7729 10.2543 19.7859C10.3299 19.8044 10.4045 19.8218 10.478 19.8446C10.5316 19.8619 10.583 19.8826 10.6355 19.9021C10.7038 19.926 10.772 19.951 10.8393 19.9792C10.8918 20.0009 10.9432 20.028 10.9947 20.0519C11.0577 20.0823 11.1218 20.1116 11.1837 20.1464C11.2352 20.1746 11.2845 20.205 11.3339 20.2365C11.3927 20.2723 11.4526 20.307 11.5093 20.3461C11.5586 20.3798 11.6049 20.4145 11.6521 20.4503C11.7078 20.4905 11.7624 20.5328 11.8149 20.5752C11.86 20.6143 11.9042 20.6544 11.9483 20.6935C11.9997 20.7402 12.0491 20.7858 12.0974 20.8335C12.1394 20.8759 12.1814 20.9204 12.2213 20.9649C12.2675 21.0148 12.3127 21.0659 12.3568 21.1169C12.3946 21.1647 12.4314 21.2113 12.4681 21.2591C12.5091 21.3145 12.55 21.3698 12.5889 21.4263C12.6235 21.4762 12.6561 21.5262 12.6876 21.5772C12.7244 21.6358 12.759 21.6955 12.7926 21.7563C12.822 21.8084 12.8504 21.8627 12.8777 21.917C12.9092 21.9788 12.9386 22.0407 12.9659 22.1048C12.9911 22.1612 13.0153 22.2177 13.0384 22.2752C13.0625 22.3403 13.0856 22.4077 13.1077 22.4739C13.1276 22.5314 13.1465 22.5911 13.1633 22.6508C13.1822 22.7192 13.199 22.7898 13.2148 22.8593C13.2285 22.9201 13.2432 22.9798 13.2547 23.0416C13.2673 23.1133 13.2778 23.186 13.2862 23.2577C13.2946 23.3206 13.3041 23.3825 13.3093 23.4466C13.3104 23.465 13.3146 23.4824 13.3156 23.5008H36.1458ZM12.716 23.8168C12.716 21.8757 11.189 20.2983 9.31228 20.2983C7.43558 20.2983 5.9086 21.8757 5.9086 23.8168C5.9086 25.7578 7.43558 27.3352 9.31228 27.3352C11.189 27.3352 12.716 25.7567 12.716 23.8168Z" stroke="black" stroke-width="0.6" mask="url(#path-9-outside-1_980_5983)"/>
<path d="M39.1022 11.1157H48.1565L49.4828 15.1776H39.1022V11.1157Z" fill="#042B60"/>
<path d="M39.1022 11.1157H48.1565L49.4828 15.1776H39.1022V11.1157Z" stroke="#1F2937"/>
<path d="M39.1022 11.1157H48.1565L49.4828 15.1776H39.1022V11.1157Z" stroke="black" stroke-opacity="0.2"/>
</svg>
