<svg width="87" height="20" viewBox="0 0 87 20" fill="none" xmlns="http://www.w3.org/2000/svg">
<path d="M64.6205 14.5845C65.1091 15.9469 65.0339 17.1529 64.395 17.9123C63.7561 18.6717 62.7227 18.7834 61.5764 18.2027C61.5764 18.2027 61.5764 18.2027 61.5576 18.2027L61.5389 18.2473C61.3134 18.1357 61.1443 18.091 60.9939 18.0463C60.449 17.6666 59.9229 17.1976 59.4531 16.6392C60.092 15.9022 61.1067 15.8129 62.2341 16.3936C62.7978 16.6839 63.136 16.6169 63.2112 16.5276C63.2864 16.4382 63.324 16.0362 63.0797 15.3662C62.5911 14.0038 62.6663 12.7977 63.324 12.0383C63.9628 11.2789 64.9963 11.1673 66.1425 11.7703C66.7062 12.0607 67.0445 12.016 67.1196 11.9043C67.1948 11.815 67.2324 11.413 67.0069 10.7429C66.5183 9.38051 66.5935 8.17444 67.2324 7.41507C67.8713 6.65569 68.9047 6.54402 70.051 7.12472C70.6147 7.41507 70.9529 7.3704 71.0281 7.25873C71.1032 7.16939 71.1408 6.76737 70.9153 6.09733C70.4456 4.80193 70.5207 3.66287 71.0844 2.88116C71.573 3.48419 71.9864 4.15423 72.3058 4.8466C72.3434 4.9806 72.381 5.13695 72.4374 5.31562C72.9259 6.67803 72.8507 7.88409 72.1931 8.64347C71.5542 9.40284 70.5207 9.51452 69.3745 8.91148C68.8108 8.62113 68.4726 8.68814 68.3974 8.77748C68.3222 8.86681 68.2847 9.26884 68.5101 9.93887C68.9987 11.3013 68.9235 12.5073 68.2847 13.2667C67.6458 14.0261 66.6123 14.1378 65.4661 13.5347C64.9024 13.2444 64.5641 13.3114 64.489 13.4007C64.4138 13.5124 64.3762 13.9144 64.6205 14.5845ZM22.774 0.73704L29.5574 17.9346V18.6047H25.7429L24.8598 16.3712H18.8468L17.9449 18.6047H14.168V17.9346L20.9326 0.73704H22.774ZM23.6008 12.4627L21.8345 7.77242L20.1246 12.4627H23.6008ZM81.6635 9.13483L86.4551 0.73704H82.1521L79.6153 5.38263H79.5026L77.0222 0.73704H72.6441L77.4356 9.13483L72.1367 18.6047H76.5901L79.5026 12.9987H79.6341L82.5279 18.6047H87L81.6635 9.13483ZM60.5618 4.19889C61.0879 3.59586 61.2194 2.65781 60.9939 1.60809C60.4866 1.98777 60.0168 2.4568 59.5659 2.97049C59.1149 3.50652 58.7203 4.10956 58.382 4.69025C59.284 4.9806 60.0544 4.80193 60.5618 4.19889ZM11.932 0.73704H7.92959C7.92959 4.08722 8.13629 7.50441 4.22786 7.50441H3.946V0.73704H0V18.6047H3.96479V11.7926C4.47214 11.7926 4.9419 11.7926 5.46804 11.681L8.81275 18.6047H13.1346V17.89L9.00065 10.0282C12.0259 7.75009 11.932 4.39991 11.932 0.73704ZM71.9488 11.9713C72.2682 12.1277 72.5877 12.2393 72.8695 12.284C73.0387 11.6363 73.1702 11.0109 73.2266 10.3632C73.0762 10.3409 72.8695 10.2962 72.6065 10.1622C71.4602 9.58152 70.4268 9.67086 69.7879 10.4526C69.149 11.2119 69.0551 12.418 69.5436 13.7804C69.7879 14.4505 69.7503 14.8301 69.6564 14.9418C69.5812 15.0535 69.243 15.0982 68.6793 14.8078C67.533 14.2271 66.5183 14.3164 65.8607 15.0758C65.2218 15.8352 65.1278 17.0636 65.6352 18.4037C65.7667 18.761 65.8043 19.0514 65.8043 19.2524C66.3492 19.1854 66.8942 19.029 67.4203 18.8057C67.3827 18.426 67.3075 18.0463 67.1572 17.622C66.9129 16.9519 66.9505 16.5722 67.0445 16.4606C67.1196 16.3712 67.4579 16.3266 68.0216 16.5946C68.9799 17.0859 69.8255 17.0636 70.4643 16.6392C70.5583 16.5276 70.671 16.4382 70.7462 16.3266C70.8777 16.1702 71.0093 15.9915 71.122 15.8352C71.479 15.0982 71.479 14.0931 71.0657 12.9987C70.8214 12.351 70.859 11.949 70.9529 11.8373C71.0469 11.7256 71.4039 11.681 71.9488 11.9713ZM41.433 12.284L44.7777 18.6047H40.0613L37.4494 13.3561H35.42V18.6047H31.5304V0.73704H38.201C44.1952 0.759375 45.2851 9.22417 41.433 12.284ZM38.2198 4.82426C37.2991 4.80193 36.3408 4.82426 35.4388 4.82426V9.29117H38.2198C40.3244 9.29117 40.4371 4.8466 38.2198 4.82426ZM61.7831 14.8971C62.422 14.1378 62.516 12.9094 62.0274 11.5693C61.7831 10.8993 61.8207 10.5196 61.9147 10.4079C61.9898 10.3186 62.3281 10.2739 62.8918 10.5419C64.038 11.1226 65.0527 11.0333 65.7104 10.2516C66.3492 9.49218 66.4432 8.28612 65.9546 6.92371C65.7104 6.25367 65.7479 5.85165 65.8419 5.76231C65.917 5.65064 66.2553 5.62831 66.819 5.89632C67.9652 6.47702 68.9799 6.38768 69.6376 5.62831C70.2764 4.86893 70.3704 3.64053 69.8631 2.27812C69.7315 1.92077 69.6939 1.65276 69.6939 1.45175C69.2054 1.07206 68.698 0.781709 68.1531 0.536029C67.9464 1.25073 67.984 2.09945 68.341 3.05983C68.5853 3.72987 68.5477 4.10956 68.4538 4.22123C68.3786 4.31057 68.0404 4.37757 67.4767 4.08722C66.3304 3.50652 65.3158 3.59586 64.6581 4.35524C64.0192 5.11461 63.9253 6.34301 64.4326 7.68308C64.6769 8.35312 64.6393 8.75514 64.5453 8.84448C64.4702 8.93382 64.1132 8.97849 63.5682 8.71047C62.422 8.12978 61.3885 8.24145 60.7497 9.00082C60.1108 9.7602 60.0168 10.9663 60.5242 12.3287C60.7684 12.9987 60.7309 13.4007 60.6369 13.4901C60.5618 13.6017 60.2235 13.6464 59.6598 13.3561C58.8706 12.954 58.1566 12.887 57.5553 13.1327C57.762 13.7804 58.0062 14.4058 58.3257 14.9865C58.476 15.0088 58.7015 15.0535 58.9458 15.2098L58.9646 15.1652C58.9646 15.1652 58.9833 15.1652 58.9833 15.1875C60.1296 15.7682 61.1443 15.6565 61.7831 14.8971ZM59.2276 11.8596C59.8665 11.1003 59.9605 9.8942 59.4719 8.5318C59.2276 7.86176 59.2652 7.48207 59.3592 7.3704C59.4343 7.28106 59.7725 7.23639 60.3363 7.50441C61.4825 8.0851 62.4972 7.99577 63.1548 7.23639C63.7937 6.47702 63.8689 5.24862 63.3803 3.88621C63.1361 3.23851 63.1736 2.83649 63.2676 2.72481C63.3615 2.63548 63.6998 2.59081 64.2447 2.85882C65.3909 3.43952 66.4056 3.35018 67.0633 2.59081C67.533 2.03244 67.7021 1.25073 67.5706 0.335018C66.9881 0.134007 66.3868 0.0446691 65.7667 0C65.7667 0.0223345 65.7667 0.0223345 65.7855 0.0446691C66.0298 0.714705 65.9922 1.09439 65.8983 1.20607C65.8231 1.31774 65.4849 1.34007 64.9212 1.07206C63.7749 0.49136 62.7414 0.580698 62.1026 1.34007C61.4637 2.09945 61.3697 3.30551 61.8583 4.66792C62.1026 5.31562 62.065 5.71764 61.971 5.82932C61.8959 5.91865 61.5576 5.96332 60.9939 5.69531C59.8477 5.11461 58.833 5.22628 58.1941 5.98566C57.5553 6.74503 57.4613 7.9511 57.9499 9.31351C58.1941 9.98354 58.1566 10.3856 58.0626 10.4749C57.9874 10.5642 57.6492 10.6089 57.0855 10.3409C57.1043 11.0556 57.1982 11.7703 57.3674 12.4627C58.1002 12.5967 58.7767 12.418 59.2276 11.8596ZM45.2663 4.82426H49.0056V18.6047H52.8576V4.82426H56.5782V0.73704H45.2663V4.82426Z" fill="#443230"/>
</svg>
