<svg width="94" height="33" viewBox="0 0 94 33" fill="none" xmlns="http://www.w3.org/2000/svg">
<g clip-path="url(#clip0_883_13328)">
<path d="M11.071 17.9584C9.42751 17.9579 8.42546 16.7806 8.4264 15.0252C8.42716 13.2692 9.43014 12.0935 11.074 12.0937C12.7181 12.0946 13.6981 13.2722 13.697 15.0267C13.6959 16.8259 12.6724 17.9596 11.071 17.9584ZM13.7425 10.6609C12.9747 9.52608 11.7803 8.79744 10.0942 8.79593C6.84984 8.79556 4.69291 11.32 4.69141 15.045C4.68953 18.7476 6.82352 21.2526 10.1741 21.2539C12.1586 21.2554 13.3112 20.378 13.9737 19.2222L13.9451 20.913L17.2795 20.9143L17.2855 9.14253L13.7429 9.14027L13.7425 10.6609Z" fill="#ED262C"/>
<path d="M24.9441 8.80414C23.7278 8.80301 22.8955 9.5094 22.3616 10.4287L21.807 9.14451L19.0547 9.143L19.0488 20.9153L22.6763 20.918L22.6791 14.4545C22.8938 13.4481 23.4503 12.5522 24.3658 12.5066C25.1513 12.4681 25.6871 12.769 26.0479 13.0364C26.3611 11.7579 26.9584 10.6137 27.7585 9.70023C27.228 9.40323 25.9902 8.80471 24.9441 8.80414Z" fill="#ED262C"/>
<path d="M33.723 17.9696C32.0795 17.9683 31.0774 16.7918 31.0778 15.0356C31.0789 13.2806 32.0832 12.1035 33.726 12.1048C35.3693 12.1056 36.3505 13.2832 36.349 15.0379C36.3488 16.8365 35.3238 17.9701 33.723 17.9696ZM36.3941 10.6719C35.6265 9.53667 34.4317 8.80822 32.7456 8.80765C29.5024 8.80577 27.3451 11.3307 27.3438 15.0558C27.3419 18.7584 29.4751 21.2637 32.8258 21.2656C34.8098 21.2658 35.962 20.3891 36.6253 19.2334L36.5973 20.9239L39.9085 20.9251L39.9369 9.15274L36.3946 9.15104L36.3941 10.6719Z" fill="#ED262C"/>
<path d="M50.0216 9.15631L46.5823 16.091L45.7098 9.15462L41.1211 9.15235L43.7193 20.9275L47.9671 20.9292L54.7393 9.15895L50.0216 9.15631Z" fill="#44474D"/>
<path d="M55.4212 9.1586L53.3242 20.9326L57.593 20.9343L59.6905 9.16124L55.4212 9.1586Z" fill="#44474D"/>
<path d="M68.9102 8.95179C67.8001 8.95103 66.5627 9.31441 65.5375 10.1487L65.6657 9.16375L61.5465 9.16186L59.4922 20.9348L63.7615 20.937L64.9588 14.13C65.1092 13.2957 65.9421 12.611 66.9885 12.611C67.97 12.6116 68.5243 13.0185 68.5235 13.8326C68.5235 13.9391 68.5019 14.0677 68.4814 14.218L67.3045 20.9389L71.5727 20.9412L72.8349 13.7276C72.8998 13.3849 72.9208 13.064 72.9205 12.7426C72.9227 10.4947 71.408 8.95235 68.9102 8.95179Z" fill="#44474D"/>
<path d="M80.1754 17.4993C78.7449 17.4985 78.0839 16.7488 78.0843 15.5279C78.0853 14.0937 79.1948 12.6172 80.8171 12.6181C81.6076 12.6183 82.2265 12.811 82.6095 13.1966L85.3208 10.4791C84.3618 9.62264 82.9317 8.95887 81.1818 8.95812C76.9133 8.9551 73.7107 11.8864 73.709 16.0407C73.7077 19.1436 75.9473 21.1572 79.5109 21.1587C81.1976 21.1598 82.798 20.6469 84.2925 19.577L82.2667 16.6224C81.7537 17.157 81.0071 17.4993 80.1754 17.4993Z" fill="#44474D"/>
<path d="M55.7344 5.73208C55.7349 4.23369 56.802 3.03495 58.36 3.03627C59.7051 3.03627 60.5797 3.93632 60.5793 5.19918C60.5786 6.69757 59.5325 7.89632 57.9738 7.89575C56.6078 7.89462 55.7331 6.99457 55.7344 5.73208Z" fill="#ED262C"/>
<path d="M42.8756 25.155C43.0614 25.1554 43.193 25.2076 43.3031 25.3232L43.4184 25.4441L43.7743 24.9973L43.6844 24.9053C43.4831 24.6986 43.2135 24.5932 42.8848 24.5936C42.2733 24.5934 41.8294 24.9683 41.829 25.4854C41.8287 25.9506 42.2889 26.091 42.4635 26.1454L42.5948 26.1842C42.8508 26.2662 42.9508 26.3264 42.9501 26.3982C42.9503 26.5461 42.7542 26.6586 42.4951 26.6586C42.2829 26.6581 42.1287 26.6013 42.0108 26.481L41.8883 26.3564L41.5762 26.7989L41.648 26.8846C41.8245 27.098 42.1323 27.2204 42.4914 27.2202C43.1225 27.2206 43.5804 26.8523 43.5806 26.3437C43.5802 25.8348 43.0426 25.6705 42.8662 25.6179L42.7267 25.5738C42.5079 25.508 42.463 25.4614 42.4626 25.412C42.463 25.2689 42.6442 25.155 42.8756 25.155Z" fill="#EB1D26"/>
<path d="M46.0333 26.1622L45.6018 24.6105L45.0235 24.6099L44.4082 27.1911L45.0352 27.1909L45.3322 25.9133L45.6857 27.1914H46.063L46.8501 25.9503L46.6986 27.192L47.3173 27.1924L47.6089 24.6112L47.0129 24.6105L46.0333 26.1622Z" fill="#EB1D26"/>
<path d="M50.2995 25.5989L50.2433 25.9067L49.27 25.9059L49.3172 25.641C49.3657 25.3572 49.6135 25.1582 49.9184 25.1586C50.0654 25.1588 50.3121 25.2022 50.3119 25.4899C50.3112 25.5174 50.3082 25.5503 50.2995 25.5989ZM49.9431 24.597C49.2975 24.5968 48.813 24.9791 48.7085 25.5708L48.4238 27.1927H49.0435L49.1696 26.4707L50.1452 26.4712L50.016 27.1933L50.6373 27.1938L50.9105 25.6421C50.9218 25.5676 50.9282 25.5067 50.9282 25.4531C50.9284 24.9406 50.533 24.597 49.9431 24.597Z" fill="#EB1D26"/>
<path d="M53.0139 25.7477L52.6872 25.7472L52.7842 25.1913H53.1982C53.4542 25.1911 53.4544 25.3378 53.454 25.3868C53.4548 25.6065 53.2813 25.7472 53.0139 25.7477ZM54.0822 25.3561C54.082 24.9141 53.7612 24.6286 53.2659 24.6286H52.2649L51.8105 27.1939L52.4304 27.1943L52.5872 26.3097H52.9359L53.3435 27.1943L54.0412 27.1948L53.5573 26.1877C53.8853 26.024 54.0818 25.7177 54.0822 25.3561Z" fill="#EB1D26"/>
<path d="M54.9277 25.1926L55.6367 25.1922L55.284 27.1962L55.904 27.1965L56.2573 25.1922L56.9704 25.1924L57.0724 24.6305L55.0229 24.6299L54.9277 25.1926Z" fill="#EB1D26"/>
<path d="M61.2442 26.6364L60.9357 26.6358L61.1888 25.1948L61.5488 25.1946C61.9727 25.1946 62.0618 25.4803 62.0618 25.7196C62.0616 26.1703 61.7561 26.6366 61.2442 26.6364ZM61.6069 24.6326L60.6693 24.6317L60.2168 27.198L61.223 27.1987C62.0577 27.1985 62.6862 26.5495 62.6867 25.6888C62.6864 25.0473 62.2634 24.633 61.6069 24.6326Z" fill="#EB1D26"/>
<path d="M63.5059 27.1993L65.2892 27.2002L65.3913 26.6386L64.2268 26.6375L64.306 26.1798L65.3539 26.1806L65.455 25.6181L64.4041 25.6175L64.4791 25.1966L65.6143 25.1964L65.7179 24.6347L63.9593 24.6339L63.5059 27.1993Z" fill="#EB1D26"/>
<path d="M67.4428 24.6361L66.8226 24.6352L66.3691 27.2005L68.0269 27.2017L68.1294 26.6395L67.0896 26.6392L67.4428 24.6361Z" fill="#EB1D26"/>
<path d="M68.9707 27.2019L69.5907 27.2026L70.0438 24.6369L69.4244 24.6366L68.9707 27.2019Z" fill="#EB1D26"/>
<path d="M71.9305 26.2757L71.5374 24.6372H70.8926L71.5453 27.2032L72.0463 27.2036L73.6054 24.6387L72.9124 24.6383L71.9305 26.2757Z" fill="#EB1D26"/>
<path d="M73.9844 27.2042L75.7677 27.2053L75.8695 26.6434L74.7048 26.6424L74.7856 26.1846L75.833 26.1857L75.9349 25.6228L74.883 25.6226L74.9582 25.201L76.0937 25.2016L76.196 24.6396L74.4378 24.6387L73.9844 27.2042Z" fill="#EB1D26"/>
<path d="M78.051 25.7591L77.7241 25.7595L77.8207 25.203L78.2345 25.2032C78.4913 25.2036 78.4915 25.3497 78.4915 25.3982C78.491 25.6139 78.3141 25.7599 78.051 25.7591ZM79.1193 25.3675C79.1191 24.9262 78.7985 24.6403 78.3024 24.6409L77.3011 24.64L76.8477 27.2064L77.4677 27.2062L77.6241 26.3214H77.9728L78.3804 27.2068H79.0781L78.5955 26.2C78.9221 26.0363 79.1194 25.7295 79.1193 25.3675Z" fill="#EB1D26"/>
<path d="M81.6962 24.6428L80.9816 25.5923L80.5945 24.6413H79.9355L80.5813 26.1963L80.3982 27.2072L81.0184 27.2078L81.197 26.2419L82.426 24.6426L81.6962 24.6428Z" fill="#EB1D26"/>
<path d="M-22.0792 -29.8001V-16.0703H-23.6613V-29.8001H-22.0792ZM-14.998 -15.8558C-15.9277 -15.8558 -16.7433 -16.077 -17.445 -16.5195C-18.1422 -16.9619 -18.6875 -17.581 -19.0808 -18.3765C-19.4696 -19.172 -19.664 -20.1017 -19.664 -21.1654C-19.664 -22.238 -19.4696 -23.1743 -19.0808 -23.9743C-18.6875 -24.7744 -18.1422 -25.3956 -17.445 -25.8381C-16.7433 -26.2805 -15.9277 -26.5018 -14.998 -26.5018C-14.0684 -26.5018 -13.255 -26.2805 -12.5578 -25.8381C-11.8561 -25.3956 -11.3108 -24.7744 -10.922 -23.9743C-10.5287 -23.1743 -10.3321 -22.238 -10.3321 -21.1654C-10.3321 -20.1017 -10.5287 -19.172 -10.922 -18.3765C-11.3108 -17.581 -11.8561 -16.9619 -12.5578 -16.5195C-13.255 -16.077 -14.0684 -15.8558 -14.998 -15.8558ZM-14.998 -17.277C-14.2919 -17.277 -13.7109 -17.458 -13.255 -17.8201C-12.7991 -18.1821 -12.4617 -18.6581 -12.2427 -19.248C-12.0237 -19.838 -11.9142 -20.4771 -11.9142 -21.1654C-11.9142 -21.8536 -12.0237 -22.495 -12.2427 -23.0894C-12.4617 -23.6838 -12.7991 -24.1643 -13.255 -24.5308C-13.7109 -24.8973 -14.2919 -25.0805 -14.998 -25.0805C-15.7042 -25.0805 -16.2852 -24.8973 -16.7411 -24.5308C-17.197 -24.1643 -17.5344 -23.6838 -17.7534 -23.0894C-17.9724 -22.495 -18.0819 -21.8536 -18.0819 -21.1654C-18.0819 -20.4771 -17.9724 -19.838 -17.7534 -19.248C-17.5344 -18.6581 -17.197 -18.1821 -16.7411 -17.8201C-16.2852 -17.458 -15.7042 -17.277 -14.998 -17.277ZM-3.76045 -11.9943C-4.5247 -11.9943 -5.1817 -12.0926 -5.73143 -12.2892C-6.28115 -12.4814 -6.73926 -12.7362 -7.10575 -13.0535C-7.46777 -13.3664 -7.75604 -13.7016 -7.97057 -14.0591L-6.71021 -14.944C-6.56719 -14.7563 -6.38618 -14.5418 -6.16719 -14.3005C-5.94819 -14.0546 -5.64874 -13.8423 -5.26885 -13.6636C-4.88449 -13.4803 -4.38168 -13.3887 -3.76045 -13.3887C-2.92915 -13.3887 -2.2431 -13.5898 -1.70231 -13.9921C-1.16152 -14.3943 -0.891128 -15.0245 -0.891128 -15.8826V-17.9743H-1.02521C-1.14141 -17.7865 -1.30678 -17.5541 -1.52131 -17.277C-1.73136 -17.0044 -2.03528 -16.7608 -2.43305 -16.5463C-2.82635 -16.3362 -3.35821 -16.2312 -4.02861 -16.2312C-4.8599 -16.2312 -5.60628 -16.4279 -6.26775 -16.8212C-6.92474 -17.2145 -7.44542 -17.7865 -7.82978 -18.5374C-8.20968 -19.2882 -8.39962 -20.2 -8.39962 -21.2726C-8.39962 -22.3274 -8.21415 -23.2458 -7.84319 -24.028C-7.47223 -24.8146 -6.95603 -25.4224 -6.29456 -25.8515C-5.6331 -26.285 -4.86884 -26.5018 -4.00179 -26.5018C-3.33139 -26.5018 -2.79954 -26.39 -2.40624 -26.1666C-2.00846 -25.9476 -1.70455 -25.6973 -1.49449 -25.4157C-1.27996 -25.1386 -1.1146 -24.9107 -0.998392 -24.7319H-0.837496V-26.3677H0.691019V-15.7753C0.691019 -14.8904 0.489899 -14.1708 0.0876577 -13.6166C-0.310114 -13.058 -0.846435 -12.649 -1.52131 -12.3898C-2.19171 -12.1261 -2.93809 -11.9943 -3.76045 -11.9943ZM-3.81408 -17.6525C-3.17943 -17.6525 -2.64311 -17.7977 -2.20511 -18.0882C-1.76712 -18.3787 -1.43415 -18.7966 -1.20622 -19.3419C-0.978281 -19.8871 -0.864312 -20.5397 -0.864312 -21.2994C-0.864312 -22.0414 -0.976046 -22.6961 -1.19951 -23.2637C-1.42298 -23.8313 -1.75371 -24.276 -2.19171 -24.5978C-2.6297 -24.9196 -3.17049 -25.0805 -3.81408 -25.0805C-4.48448 -25.0805 -5.04315 -24.9107 -5.49008 -24.571C-5.93255 -24.2313 -6.26551 -23.7755 -6.48898 -23.2034C-6.70798 -22.6313 -6.81748 -21.9967 -6.81748 -21.2994C-6.81748 -20.5843 -6.70574 -19.9519 -6.48228 -19.4022C-6.25434 -18.8569 -5.91914 -18.4279 -5.47667 -18.115C-5.02974 -17.8067 -4.47554 -17.6525 -3.81408 -17.6525ZM7.77045 -15.8558C6.84083 -15.8558 6.02518 -16.077 5.32349 -16.5195C4.62627 -16.9619 4.08101 -17.581 3.68771 -18.3765C3.29888 -19.172 3.10446 -20.1017 3.10446 -21.1654C3.10446 -22.238 3.29888 -23.1743 3.68771 -23.9743C4.08101 -24.7744 4.62627 -25.3956 5.32349 -25.8381C6.02518 -26.2805 6.84083 -26.5018 7.77045 -26.5018C8.70008 -26.5018 9.5135 -26.2805 10.2107 -25.8381C10.9124 -25.3956 11.4577 -24.7744 11.8465 -23.9743C12.2398 -23.1743 12.4364 -22.238 12.4364 -21.1654C12.4364 -20.1017 12.2398 -19.172 11.8465 -18.3765C11.4577 -17.581 10.9124 -16.9619 10.2107 -16.5195C9.5135 -16.077 8.70008 -15.8558 7.77045 -15.8558ZM7.77045 -17.277C8.47661 -17.277 9.05763 -17.458 9.5135 -17.8201C9.96937 -18.1821 10.3068 -18.6581 10.5258 -19.248C10.7448 -19.838 10.8543 -20.4771 10.8543 -21.1654C10.8543 -21.8536 10.7448 -22.495 10.5258 -23.0894C10.3068 -23.6838 9.96937 -24.1643 9.5135 -24.5308C9.05763 -24.8973 8.47661 -25.0805 7.77045 -25.0805C7.0643 -25.0805 6.48328 -24.8973 6.02741 -24.5308C5.57154 -24.1643 5.2341 -23.6838 5.01511 -23.0894C4.79611 -22.495 4.68661 -21.8536 4.68661 -21.1654C4.68661 -20.4771 4.79611 -19.838 5.01511 -19.248C5.2341 -18.6581 5.57154 -18.1821 6.02741 -17.8201C6.48328 -17.458 7.0643 -17.277 7.77045 -17.277ZM-22.8836 6.92969H-24.6267L-19.5853 -6.80013H-17.869L-12.8276 6.92969H-14.5707L-18.6735 -4.62803H-18.7808L-22.8836 6.92969ZM-22.2401 1.56648H-15.2143V3.04136H-22.2401V1.56648ZM-10.689 6.92969V-6.80013H-6.04987C-4.97722 -6.80013 -4.09676 -6.61689 -3.40849 -6.2504C-2.72021 -5.88839 -2.2107 -5.39005 -1.87997 -4.75541C-1.54924 -4.12076 -1.38387 -3.39896 -1.38387 -2.59001C-1.38387 -1.78106 -1.54924 -1.06373 -1.87997 -0.438023C-2.2107 0.187685 -2.71797 0.679313 -3.40178 1.03686C-4.08559 1.38994 -4.95935 1.56648 -6.02305 1.56648H-9.7773V0.0647782H-6.07668C-5.34371 0.0647782 -4.75376 -0.0424861 -4.30682 -0.257015C-3.85542 -0.471543 -3.52916 -0.775458 -3.32804 -1.16876C-3.12245 -1.56653 -3.01965 -2.04028 -3.01965 -2.59001C-3.01965 -3.13974 -3.12245 -3.62019 -3.32804 -4.03137C-3.53363 -4.44255 -3.86212 -4.75988 -4.31353 -4.98334C-4.76493 -5.21128 -5.36159 -5.32525 -6.1035 -5.32525H-9.02645V6.92969H-10.689ZM-4.22637 0.761995L-0.847553 6.92969H-2.77831L-6.1035 0.761995H-4.22637ZM1.9497 6.92969H0.206654L5.24807 -6.80013H6.9643L12.0057 6.92969H10.2627L6.15982 -4.62803H6.05255L1.9497 6.92969ZM2.59328 1.56648H9.61909V3.04136H2.59328V1.56648ZM-22.8836 16.1999L-18.8076 27.7576H-18.6467L-14.5707 16.1999H-12.8276L-17.869 29.9297H-19.5853L-24.6267 16.1999H-22.8836ZM-9.02645 16.1999V29.9297H-10.689V16.1999H-9.02645ZM5.19444 16.1999V29.9297H3.58548L-3.8962 19.1496H-4.03028V29.9297H-5.69288V16.1999H-4.08391L3.42458 27.0067H3.55866V16.1999H5.19444ZM-12.3986 43.4904H-14.0612C-14.1595 43.0122 -14.3316 42.5921 -14.5774 42.2301C-14.8187 41.8681 -15.1137 41.5642 -15.4623 41.3183C-15.8064 41.0681 -16.1886 40.8803 -16.6087 40.7552C-17.0288 40.6301 -17.4668 40.5675 -17.9227 40.5675C-18.754 40.5675 -19.5071 40.7775 -20.1819 41.1977C-20.8523 41.6178 -21.3864 42.2368 -21.7842 43.0547C-22.1775 43.8726 -22.3741 44.8759 -22.3741 46.0648C-22.3741 47.2536 -22.1775 48.257 -21.7842 49.0749C-21.3864 49.8928 -20.8523 50.5118 -20.1819 50.9319C-19.5071 51.352 -18.754 51.5621 -17.9227 51.5621C-17.4668 51.5621 -17.0288 51.4995 -16.6087 51.3744C-16.1886 51.2492 -15.8064 51.0637 -15.4623 50.8179C-15.1137 50.5676 -14.8187 50.2615 -14.5774 49.8995C-14.3316 49.533 -14.1595 49.1129 -14.0612 48.6391H-12.3986C-12.5237 49.3408 -12.7516 49.9687 -13.0824 50.5229C-13.4131 51.0771 -13.8243 51.5487 -14.3159 51.9375C-14.8075 52.3219 -15.3595 52.6146 -15.9718 52.8157C-16.5796 53.0168 -17.2299 53.1174 -17.9227 53.1174C-19.0936 53.1174 -20.135 52.8314 -21.0467 52.2593C-21.9585 51.6872 -22.6758 50.8738 -23.1987 49.819C-23.7216 48.7643 -23.9831 47.5128 -23.9831 46.0648C-23.9831 44.6167 -23.7216 43.3653 -23.1987 42.3105C-22.6758 41.2558 -21.9585 40.4423 -21.0467 39.8703C-20.135 39.2982 -19.0936 39.0122 -17.9227 39.0122C-17.2299 39.0122 -16.5796 39.1127 -15.9718 39.3138C-15.3595 39.515 -14.8075 39.8099 -14.3159 40.1988C-13.8243 40.5831 -13.4131 41.0524 -13.0824 41.6066C-12.7516 42.1563 -12.5237 42.7843 -12.3986 43.4904ZM-0.594476 50.5162V41.6669H0.907222V50.5162H-0.594476ZM-4.26828 46.8424V45.3407H4.58102V46.8424H-4.26828ZM-19.183 65.6323V66.9731H-24.5194V65.6323H-19.183ZM-22.9641 63.1652H-21.3819V72.9799C-21.3819 73.4269 -21.3171 73.7621 -21.1875 73.9855C-21.0534 74.2045 -20.8836 74.352 -20.678 74.428C-20.468 74.4995 -20.2467 74.5353 -20.0143 74.5353C-19.84 74.5353 -19.697 74.5263 -19.5853 74.5084C-19.4735 74.4861 -19.3841 74.4682 -19.3171 74.4548L-18.9953 75.8761C-19.1026 75.9163 -19.2523 75.9565 -19.4445 75.9967C-19.6367 76.0414 -19.8802 76.0638 -20.1752 76.0638C-20.6222 76.0638 -21.0602 75.9677 -21.4892 75.7755C-21.9138 75.5833 -22.2669 75.2906 -22.5484 74.8973C-22.8255 74.504 -22.9641 74.0079 -22.9641 73.409V63.1652ZM-13.7729 76.171C-14.4254 76.171 -15.0176 76.0481 -15.5495 75.8023C-16.0813 75.552 -16.5037 75.1922 -16.8165 74.723C-17.1294 74.2492 -17.2858 73.6771 -17.2858 73.0067C-17.2858 72.4168 -17.1696 71.9386 -16.9372 71.5721C-16.7048 71.2011 -16.3942 70.9106 -16.0053 70.7006C-15.6165 70.4905 -15.1874 70.3341 -14.7182 70.2313C-14.2444 70.124 -13.7684 70.0391 -13.2902 69.9765C-12.6645 69.8961 -12.1572 69.8357 -11.7684 69.7955C-11.3751 69.7508 -11.089 69.6771 -10.9103 69.5743C-10.727 69.4715 -10.6354 69.2927 -10.6354 69.038V68.9843C-10.6354 68.3229 -10.8164 67.8089 -11.1784 67.4424C-11.536 67.0759 -12.079 66.8927 -12.8075 66.8927C-13.5628 66.8927 -14.155 67.058 -14.5841 67.3888C-15.0131 67.7195 -15.3148 68.0726 -15.4891 68.448L-16.9908 67.9117C-16.7227 67.286 -16.3651 66.7988 -15.9182 66.4502C-15.4668 66.0971 -14.9751 65.8513 -14.4433 65.7128C-13.907 65.5698 -13.3796 65.4982 -12.8611 65.4982C-12.5304 65.4982 -12.1505 65.5385 -11.7215 65.6189C-11.2879 65.6949 -10.8701 65.8536 -10.4678 66.0949C-10.0611 66.3362 -9.72367 66.7005 -9.45551 67.1877C-9.18734 67.6748 -9.05326 68.3273 -9.05326 69.1452V75.9297H-10.6354V74.5353H-10.7159C-10.8231 74.7587 -11.0019 74.9978 -11.2522 75.2526C-11.5025 75.5073 -11.8354 75.7241 -12.2511 75.9029C-12.6667 76.0816 -13.174 76.171 -13.7729 76.171ZM-13.5315 74.7498C-12.9058 74.7498 -12.3785 74.6269 -11.9494 74.3811C-11.5159 74.1352 -11.1896 73.8179 -10.9706 73.4291C-10.7471 73.0403 -10.6354 72.6313 -10.6354 72.2023V70.7542C-10.7025 70.8346 -10.8499 70.9084 -11.0779 70.9754C-11.3013 71.038 -11.5606 71.0939 -11.8555 71.143C-12.146 71.1877 -12.4299 71.2279 -12.707 71.2637C-12.9796 71.295 -13.2008 71.3218 -13.3706 71.3441C-13.7818 71.3978 -14.1662 71.4849 -14.5237 71.6056C-14.8768 71.7218 -15.1629 71.8983 -15.3819 72.1352C-15.5964 72.3676 -15.7036 72.6849 -15.7036 73.0872C-15.7036 73.6369 -15.5003 74.0526 -15.0936 74.3341C-14.6824 74.6112 -14.1617 74.7498 -13.5315 74.7498ZM-2.00902 80.0057C-2.77328 80.0057 -3.43027 79.9074 -3.98 79.7108C-4.52973 79.5186 -4.98784 79.2638 -5.35433 78.9465C-5.71634 78.6336 -6.00462 78.2984 -6.21914 77.9409L-4.95879 77.056C-4.81577 77.2437 -4.63476 77.4582 -4.41576 77.6995C-4.19677 77.9454 -3.89732 78.1577 -3.51743 78.3364C-3.13306 78.5197 -2.63026 78.6113 -2.00902 78.6113C-1.17773 78.6113 -0.491682 78.4102 0.0491082 78.0079C0.589899 77.6057 0.860294 76.9755 0.860294 76.1174V74.0257H0.726213C0.610011 74.2135 0.444645 74.4459 0.230116 74.723C0.0200573 74.9956 -0.283858 75.2392 -0.68163 75.4537C-1.07493 75.6638 -1.60678 75.7688 -2.27718 75.7688C-3.10848 75.7688 -3.85486 75.5721 -4.51632 75.1788C-5.17332 74.7855 -5.694 74.2135 -6.07836 73.4626C-6.45825 72.7118 -6.6482 71.8 -6.6482 70.7274C-6.6482 69.6726 -6.46272 68.7542 -6.09177 67.972C-5.72081 67.1854 -5.2046 66.5776 -4.54314 66.1485C-3.88168 65.715 -3.11742 65.4982 -2.25037 65.4982C-1.57997 65.4982 -1.04812 65.61 -0.654813 65.8334C-0.257042 66.0524 0.0468736 66.3027 0.256933 66.5843C0.471461 66.8614 0.636827 67.0893 0.75303 67.2681H0.913926V65.6323H2.44244V76.2247C2.44244 77.1096 2.24132 77.8292 1.83908 78.3834C1.44131 78.942 0.904987 79.351 0.230116 79.6102C-0.440285 79.8739 -1.18667 80.0057 -2.00902 80.0057ZM-2.06266 74.3475C-1.42801 74.3475 -0.891688 74.2023 -0.453693 73.9118C-0.0156976 73.6213 0.317268 73.2034 0.545205 72.6581C0.773141 72.1129 0.887109 71.4603 0.887109 70.7006C0.887109 69.9586 0.775376 69.3039 0.551909 68.7363C0.328442 68.1687 -0.00228933 67.724 -0.440285 67.4022C-0.87828 67.0804 -1.41907 66.9195 -2.06266 66.9195C-2.73306 66.9195 -3.29173 67.0893 -3.73866 67.429C-4.18112 67.7687 -4.51409 68.2245 -4.73756 68.7966C-4.95655 69.3687 -5.06605 70.0033 -5.06605 70.7006C-5.06605 71.4157 -4.95432 72.0481 -4.73085 72.5978C-4.50292 73.1431 -4.16772 73.5721 -3.72525 73.885C-3.27832 74.1933 -2.72412 74.3475 -2.06266 74.3475ZM6.92072 62.1999V75.9297H5.33857V62.1999H6.92072ZM-23.6613 98.9297V88.6323H-22.0792V98.9297H-23.6613ZM-22.8568 86.9161C-23.1652 86.9161 -23.4311 86.8111 -23.6546 86.601C-23.8736 86.3909 -23.9831 86.1384 -23.9831 85.8435C-23.9831 85.5485 -23.8736 85.296 -23.6546 85.0859C-23.4311 84.8758 -23.1652 84.7708 -22.8568 84.7708C-22.5484 84.7708 -22.2848 84.8758 -22.0658 85.0859C-21.8423 85.296 -21.7306 85.5485 -21.7306 85.8435C-21.7306 86.1384 -21.8423 86.3909 -22.0658 86.601C-22.2848 86.8111 -22.5484 86.9161 -22.8568 86.9161ZM-17.5992 92.7352V98.9297H-19.1814V88.6323H-17.6528V90.2413H-17.5188C-17.2774 89.7184 -16.9109 89.2983 -16.4193 88.9809C-15.9277 88.6591 -15.293 88.4982 -14.5154 88.4982C-13.8181 88.4982 -13.2081 88.6413 -12.6852 88.9273C-12.1622 89.2089 -11.7555 89.6379 -11.465 90.2145C-11.1745 90.7865 -11.0293 91.5106 -11.0293 92.3866V98.9297H-12.6114V92.4938C-12.6114 91.6849 -12.8215 91.0547 -13.2416 90.6033C-13.6617 90.1474 -14.2383 89.9195 -14.9712 89.9195C-15.4763 89.9195 -15.9277 90.029 -16.3254 90.248C-16.7187 90.467 -17.0294 90.7865 -17.2573 91.2067C-17.4852 91.6268 -17.5992 92.1363 -17.5992 92.7352ZM-3.82078 99.1442C-4.81298 99.1442 -5.66886 98.9252 -6.38842 98.4872C-7.10351 98.0448 -7.65548 97.428 -8.04431 96.6369C-8.42867 95.8414 -8.62086 94.9162 -8.62086 93.8615C-8.62086 92.8067 -8.42867 91.8771 -8.04431 91.0726C-7.65548 90.2636 -7.11469 89.6335 -6.42194 89.1821C-5.72472 88.7262 -4.9113 88.4982 -3.98168 88.4982C-3.44536 88.4982 -2.91574 88.5876 -2.39283 88.7664C-1.86991 88.9452 -1.39393 89.2357 -0.964872 89.6379C-0.535816 90.0357 -0.193911 90.5631 0.060842 91.2201C0.315594 91.8771 0.44297 92.686 0.44297 93.6469V94.3173H-7.49458V92.9497H-1.16599C-1.16599 92.3687 -1.2822 91.8502 -1.5146 91.3944C-1.74254 90.9385 -2.0688 90.5787 -2.49339 90.315C-2.91351 90.0513 -3.4096 89.9195 -3.98168 89.9195C-4.61186 89.9195 -5.15712 90.0759 -5.61746 90.3888C-6.07333 90.6972 -6.42417 91.0994 -6.66999 91.5955C-6.9158 92.0916 -7.03871 92.6234 -7.03871 93.1911V94.1028C-7.03871 94.8805 -6.90463 95.5397 -6.63647 96.0805C-6.36384 96.6168 -5.98618 97.0257 -5.50349 97.3073C-5.0208 97.5844 -4.4599 97.723 -3.82078 97.723C-3.40513 97.723 -3.02971 97.6649 -2.69451 97.5487C-2.35484 97.428 -2.0621 97.2492 -1.81628 97.0123C-1.57047 96.771 -1.38052 96.4715 -1.24644 96.114L0.282074 96.5431C0.121178 97.0615 -0.149218 97.5174 -0.529112 97.9107C-0.909006 98.2995 -1.37829 98.6034 -1.93695 98.8224C-2.49562 99.037 -3.12356 99.1442 -3.82078 99.1442Z" fill="white"/>
</g>
<defs>
<clipPath id="clip0_883_13328">
<rect width="94" height="33" fill="white"/>
</clipPath>
</defs>
</svg>
