<svg width="48" height="44" viewBox="0 0 48 44" fill="none" xmlns="http://www.w3.org/2000/svg">
<g clip-path="url(#clip0_980_5761)">
<path d="M14.4148 12.5325V0.477539H11.3813V12.5325C8.9968 13.5482 7.46484 15.8401 7.46484 18.4161V40.2632H18.3313V18.4161C18.3313 15.841 16.7993 13.5482 14.4156 12.5325H14.4148Z" fill="white"/>
<path d="M18.7408 40.7396H7.0553V18.416C7.0553 15.751 8.58335 13.3448 10.9718 12.2056V0H14.8251V12.2056C17.2135 13.3448 18.7415 15.751 18.7415 18.416V40.7405L18.7408 40.7396ZM7.8751 39.7847H17.921V18.416C17.921 16.0578 16.4896 13.9248 14.2744 12.9808L14.0053 12.8664V0.954884H11.7924V12.8664L11.5232 12.9808C9.30799 13.9239 7.87666 16.0578 7.87666 18.416V39.7856L7.8751 39.7847Z" fill="black"/>
<path d="M14.0005 0.847656H11.797V6.0142H14.0005V0.847656Z" fill="#042B60"/>
<path d="M16.4131 19.5625H9.38361C8.77317 19.5625 8.27832 20.1383 8.27832 20.8487V33.4292C8.27832 34.1395 8.77317 34.7154 9.38361 34.7154H16.4131C17.0236 34.7154 17.5184 34.1395 17.5184 33.4292V20.8487C17.5184 20.1383 17.0236 19.5625 16.4131 19.5625Z" fill="#042B60"/>
<path d="M29.0448 12.5325V0.477539H26.0113V12.5325C23.6268 13.5482 22.0948 15.8401 22.0948 18.4161V40.2632H32.9597V18.4161C32.9597 15.841 31.4278 13.5482 29.044 12.5325H29.0448Z" fill="white"/>
<path d="M33.3708 40.7396H21.6853V18.416C21.6853 15.751 23.2134 13.3448 25.6018 12.2056V0H29.4551V12.2056C31.8435 13.3448 33.3715 15.751 33.3715 18.416V40.7405L33.3708 40.7396ZM22.5051 39.7847H32.5502V18.416C32.5502 16.0578 31.1188 13.9248 28.9036 12.9808L28.6345 12.8664V0.954884H26.4216V12.8664L26.1525 12.9808C23.9372 13.9239 22.5059 16.0578 22.5059 18.416V39.7856L22.5051 39.7847Z" fill="black"/>
<path d="M28.6298 0.847656H26.4263V6.0142H28.6298V0.847656Z" fill="#042B60"/>
<path d="M31.0424 19.5625H24.0129C23.4024 19.5625 22.9076 20.1383 22.9076 20.8487V33.4292C22.9076 34.1395 23.4024 34.7154 24.0129 34.7154H31.0424C31.6528 34.7154 32.1477 34.1395 32.1477 33.4292V20.8487C32.1477 20.1383 31.6528 19.5625 31.0424 19.5625Z" fill="#042B60"/>
<path d="M43.6741 12.5325V0.477539H40.6406V12.5325C38.2561 13.5482 36.7241 15.8401 36.7241 18.4161V40.2632H47.589V18.4161C47.589 15.841 46.057 13.5482 43.6733 12.5325H43.6741Z" fill="white"/>
<path d="M48 40.7396H36.3146V18.416C36.3146 15.751 37.8426 13.3448 40.2311 12.2056V0H44.0843V12.2056C46.4728 13.3448 48.0008 15.751 48.0008 18.416V40.7405L48 40.7396ZM37.1344 39.7847H47.1795V18.416C47.1795 16.0578 45.7481 13.9248 43.5329 12.9808L43.2638 12.8664V0.954884H41.0509V12.8664L40.7817 12.9808C38.5665 13.9239 37.1352 16.0578 37.1352 18.416V39.7856L37.1344 39.7847Z" fill="black"/>
<path d="M43.2591 0.847656H41.0555V6.0142H43.2591V0.847656Z" fill="#042B60"/>
<path d="M45.6717 19.5625H38.6422C38.0317 19.5625 37.5369 20.1383 37.5369 20.8487V33.4292C37.5369 34.1395 38.0317 34.7154 38.6422 34.7154H45.6717C46.2821 34.7154 46.777 34.1395 46.777 33.4292V20.8487C46.777 20.1383 46.2821 19.5625 45.6717 19.5625Z" fill="#042B60"/>
<path d="M7.35946 15.7927V3.73682H4.32675V15.7927C1.94223 16.8084 0.410278 19.1003 0.410278 21.6763V43.5233H11.2752V21.6754C11.2752 19.1003 9.7432 16.8075 7.35946 15.7918V15.7927Z" fill="white"/>
<path d="M11.6855 43.9998H0V21.6753C0 19.0103 1.52806 16.6041 3.91647 15.4649V3.25928H7.76976V15.4649C10.1582 16.6041 11.6862 19.0103 11.6862 21.6753V43.9998H11.6855ZM0.8198 43.0449H10.8657V21.6753C10.8657 19.3171 9.43433 17.1841 7.21907 16.2401L6.94997 16.1257V4.21416H4.73705V16.1257L4.46795 16.2401C2.25269 17.1832 0.82136 19.3171 0.82136 21.6753V43.0449H0.8198Z" fill="black"/>
<path d="M6.94452 4.10791H4.74097V9.27445H6.94452V4.10791Z" fill="#042B60"/>
<path d="M9.35784 22.8218H2.32831C1.71788 22.8218 1.22302 23.3976 1.22302 24.108V36.6885C1.22302 37.3988 1.71788 37.9747 2.32831 37.9747H9.35784C9.96827 37.9747 10.4631 37.3988 10.4631 36.6885V24.108C10.4631 23.3976 9.96827 22.8218 9.35784 22.8218Z" fill="#042B60"/>
<path d="M21.9895 15.7927V3.73682H18.956V15.7927C16.5715 16.8084 15.0396 19.1003 15.0396 21.6763V43.5233H25.9044V21.6754C25.9044 19.1003 24.3725 16.8075 21.9887 15.7918L21.9895 15.7927Z" fill="white"/>
<path d="M26.3155 43.9998H14.6293V21.6753C14.6293 19.0103 16.1573 16.6041 18.5457 15.4649V3.25928H22.399V15.4649C24.7875 16.6041 26.3155 19.0103 26.3155 21.6753V43.9998ZM15.4499 43.0449H25.4949V21.6753C25.4949 19.3171 24.0636 17.1841 21.8483 16.2401L21.5792 16.1257V4.21416H19.3663V16.1257L19.0972 16.2401C16.882 17.1832 15.4506 19.3171 15.4506 21.6753V43.0449H15.4499Z" fill="black"/>
<path d="M21.5745 4.10791H19.371V9.27445H21.5745V4.10791Z" fill="#042B60"/>
<path d="M23.9871 22.8218H16.9576C16.3471 22.8218 15.8523 23.3976 15.8523 24.108V36.6885C15.8523 37.3988 16.3471 37.9747 16.9576 37.9747H23.9871C24.5975 37.9747 25.0924 37.3988 25.0924 36.6885V24.108C25.0924 23.3976 24.5975 22.8218 23.9871 22.8218Z" fill="#042B60"/>
<path d="M36.6188 15.7927V3.73682H33.5853V15.7927C31.2008 16.8084 29.6688 19.1003 29.6688 21.6763V43.5233H40.5337V21.6754C40.5337 19.1003 39.0017 16.8075 36.618 15.7918L36.6188 15.7927Z" fill="white"/>
<path d="M40.9447 43.9998H29.2593V21.6753C29.2593 19.0103 30.7873 16.6041 33.1758 15.4649V3.25928H37.029V15.4649C39.4175 16.6041 40.9455 19.0103 40.9455 21.6753V43.9998H40.9447ZM30.0791 43.0449H40.1242V21.6753C40.1242 19.3171 38.6928 17.1841 36.4776 16.2401L36.2085 16.1257V4.21416H33.9956V16.1257L33.7264 16.2401C31.5112 17.1832 30.0799 19.3171 30.0799 21.6753V43.0449H30.0791Z" fill="black"/>
<path d="M36.2038 4.10791H34.0002V9.27445H36.2038V4.10791Z" fill="#042B60"/>
<path d="M38.6164 22.8218H31.5869C30.9764 22.8218 30.4816 23.3976 30.4816 24.108V36.6885C30.4816 37.3988 30.9764 37.9747 31.5869 37.9747H38.6164C39.2268 37.9747 39.7217 37.3988 39.7217 36.6885V24.108C39.7217 23.3976 39.2268 22.8218 38.6164 22.8218Z" fill="#042B60"/>
</g>
<defs>
<clipPath id="clip0_980_5761">
<rect width="48" height="44" fill="white"/>
</clipPath>
</defs>
</svg>
